<svg viewBox="0 0 392 721" fill="none" xmlns="http://www.w3.org/2000/svg">
  <rect x="5" y="54" width="382" height="662" rx="55" fill="#4ECB44" stroke="black" stroke-width="10" />
  <mask id="path-2-outside-1_511_665" maskUnits="userSpaceOnUse" x="130" y="0" width="132" height="59" fill="black">
    <rect fill="white" x="130" width="132" height="59" />
    <path d="M140 30C140 18.9543 148.954 10 160 10H232C243.046 10 252 18.9543 252 30V59H140V30Z" />
  </mask>
  <path d="M140 30C140 18.9543 148.954 10 160 10H232C243.046 10 252 18.9543 252 30V59H140V30Z" fill="#4ECB44" />
  <path
    d="M130 30C130 13.4315 143.431 0 160 0H232C248.569 0 262 13.4315 262 30H242C242 24.4772 237.523 20 232 20H160C154.477 20 150 24.4772 150 30H130ZM252 59H140H252ZM130 59V30C130 13.4315 143.431 0 160 0V20C154.477 20 150 24.4772 150 30V59H130ZM232 0C248.569 0 262 13.4315 262 30V59H242V30C242 24.4772 237.523 20 232 20V0Z"
    fill="black" mask="url(#path-2-outside-1_511_665)" />
  <path
    d="M233.255 314.5H233.257C235.138 314.501 236.991 314.949 238.665 315.807C240.339 316.665 241.784 317.908 242.884 319.434C243.983 320.96 244.704 322.725 244.988 324.584C245.271 326.443 245.109 328.343 244.515 330.128L244.515 330.128L212.236 427H280.129H280.13V429.5C281.886 429.499 283.607 429.991 285.097 430.919C286.586 431.848 287.786 433.177 288.557 434.753C289.329 436.33 289.643 438.092 289.462 439.839C289.282 441.585 288.615 443.246 287.537 444.631L233.255 314.5ZM233.255 314.5H158.256C158.256 314.5 158.256 314.5 158.255 314.5C155.69 314.499 153.192 315.329 151.138 316.865C149.083 318.402 147.581 320.564 146.857 323.026C146.857 323.026 146.857 323.026 146.857 323.026L99.9821 482.401L99.982 482.401C99.4613 484.173 99.3609 486.041 99.6885 487.858C100.016 489.675 100.763 491.39 101.87 492.868C102.976 494.346 104.412 495.545 106.063 496.371C107.715 497.197 109.536 497.626 111.382 497.625L233.255 314.5Z"
    fill="white" stroke="black" stroke-width="5" />
</svg>