<svg viewBox="0 0 392 721" fill="none" xmlns="http://www.w3.org/2000/svg">
  <rect x="5" y="54" width="382" height="662" rx="55" fill="#4ECB44" stroke="black" stroke-width="10" />
  <mask id="path-2-outside-1_511_668" maskUnits="userSpaceOnUse" x="130" y="0" width="132" height="59" fill="black">
    <rect fill="white" x="130" width="132" height="59" />
    <path d="M140 30C140 18.9543 148.954 10 160 10H232C243.046 10 252 18.9543 252 30V59H140V30Z" />
  </mask>
  <path d="M140 30C140 18.9543 148.954 10 160 10H232C243.046 10 252 18.9543 252 30V59H140V30Z" fill="#4ECB44" />
  <path
    d="M130 30C130 13.4315 143.431 0 160 0H232C248.569 0 262 13.4315 262 30H242C242 24.4772 237.523 20 232 20H160C154.477 20 150 24.4772 150 30H130ZM252 59H140H252ZM130 59V30C130 13.4315 143.431 0 160 0V20C154.477 20 150 24.4772 150 30V59H130ZM232 0C248.569 0 262 13.4315 262 30V59H242V30C242 24.4772 237.523 20 232 20V0Z"
    fill="black" mask="url(#path-2-outside-1_511_668)" />
  <g clip-path="url(#clip0_511_668)">
    <path
      d="M149.5 335.731C150.071 333.787 151.257 332.081 152.88 330.867C154.502 329.654 156.474 328.999 158.5 329H233.5C234.985 329.001 236.448 329.355 237.769 330.032C239.091 330.709 240.232 331.691 241.1 332.895C241.968 334.1 242.537 335.494 242.761 336.961C242.985 338.429 242.857 339.929 242.388 341.338L209.013 441.5H280.375C282.131 441.499 283.851 441.991 285.341 442.919C286.831 443.848 288.03 445.177 288.802 446.753C289.574 448.33 289.887 450.092 289.707 451.839C289.527 453.585 288.859 455.246 287.781 456.631L156.531 625.381C155.187 627.118 153.275 628.328 151.13 628.799C148.984 629.271 146.741 628.974 144.792 627.96C142.843 626.947 141.312 625.281 140.466 623.254C139.62 621.227 139.513 618.967 140.163 616.869L173.931 507.125H111.625C110.168 507.126 108.73 506.787 107.426 506.135C106.123 505.483 104.989 504.536 104.115 503.369C103.242 502.203 102.652 500.848 102.393 499.414C102.135 497.98 102.214 496.505 102.625 495.106L149.5 335.731Z"
      fill="white" />
  </g>
  <defs>
    <clipPath id="clip0_511_668">
      <rect width="300" height="300" fill="white" transform="translate(46 329)" />
    </clipPath>
  </defs>
</svg>