<?xml version="1.0" standalone="no"?>
<svg version="1.1" id="Layer_1" xmlns="http://www.w3.org/2000/svg" xmlns:xlink="http://www.w3.org/1999/xlink" x="0px" y="0px" width="595.276px" height="595.276px" viewBox="0 0 595.276 595.276" enable-background="new 0 0 595.276 595.276" xml:space="preserve">
<path id="color_x5F_5" fill-rule="evenodd" clip-rule="evenodd" fill="#1055e0" d="M153.579,307.135
	c0.064,1.187,0.324,2.34,0.756,3.42c-0.669,6.075-0.041,14.503,4.114,17.457c39.354,27.977,139.232,87.148,182.504,112.935
	c-105.047-1.16-225.564-13.044-232.711-37.179c-5.924-20.002,5.173-30.596,18.458-36.184c11.364-4.876,16.642-18.027,11.801-29.406
	c-1.875-4.403-3.156-9.426-3.346-15.061C134.948,316.994,141.757,311.649,153.579,307.135z M314.568,289.776
	c71.099,0.704,140.056,9.726,157.064,28.428c20.737,22.8,14.537,41.739,0.111,51.43c-26.254,17.636,43.743,32.413,24.92,56.733
	c-6.469,8.358-52.887,13.272-111.539,14.414c21.89-11.86,57.462-28.386,73.461-42.352c2.859-2.496,3.037-15.485,2.1-21.607
	c0.108-0.586,0.158-1.188,0.145-1.797c-0.069-3.227-1.888-6.163-4.746-7.662l-142.819-74.88l0.6-1.245L314.568,289.776z"></path>
<path id="color_x5F_4" fill-rule="evenodd" clip-rule="evenodd" fill="#4a90e2" d="M304.961,309.33
	c21.367,2.545,37.26,12.041,37.26,23.354c0,13.259-21.834,24.024-48.727,24.024s-48.727-10.765-48.727-24.024
	c0-11.056,15.18-20.377,35.813-23.17c1.253,2.491,2.438,4.823,3.541,6.978c-16.209,1.764-28.244,8.218-28.244,15.902
	c0,9.039,16.656,16.377,37.172,16.377c20.515,0,37.171-7.338,37.171-16.377c0-7.781-12.34-14.301-28.86-15.966
	C302.481,314.237,303.686,311.864,304.961,309.33z M298.42,322.135c9.745,1.104,17.023,5.409,17.023,10.548
	c0,5.973-9.835,10.822-21.949,10.822s-21.95-4.849-21.95-10.822c0-4.882,6.57-9.013,15.584-10.359
	c0.582,1.122,1.127,2.165,1.63,3.125c-7.04,0.872-12.209,3.723-12.209,7.103c0,4.071,7.504,7.377,16.745,7.377
	c9.242,0,16.745-3.306,16.745-7.377c0-3.55-5.701-6.517-13.285-7.22C297.266,324.351,297.824,323.284,298.42,322.135z"></path>
<path id="color_x5F_3" fill-rule="evenodd" clip-rule="evenodd" fill="#43e899" d="M154.335,310.555
	c-0.029,0.531,4.161,5.444,4.315,5.143l0.16,0.098c42.399,25.313,149.514,89.261,188.861,112.752
	c0.162,0.097,4.198,2.483,8.74,3.479c4.405,0.966,9.297,0.547,10.879,0.295c4.592-0.851,8.409-2.584,11.925-4.659l75.552-43.823
	c0,0,3.006-1.599,4.144-3.176c1.359-1.886,1.785-3.819,1.773-3.838c0.937,6.122,0.758,19.111-2.1,21.607
	c-17.71,15.459-59.406,34.058-79.977,45.989c-9.986,5.792-22.258,5.714-32.172-0.205c-39.655-23.674-146.863-86.97-187.986-116.204
	C154.294,325.058,153.666,316.63,154.335,310.555L154.335,310.555z M369.618,398.317l-27.058,14.974l-59.163-35.181L369.618,398.317
	z M403.555,349.112l28.285,14.772l-42.535,23.538l-21.281-4.988v-35.438L403.555,349.112z M258.954,264.045
	c-16.581-37.145-33.042-80.608-33.042-106.762c0-36.875,29.938-66.813,66.813-66.813c36.874,0,66.813,29.938,66.813,66.813
	c0,33.386-26.823,94.977-46.479,135.628l-3.46,7.094l-0.013,0.027l50.45,26.35v54.181l-119.683-28.051l-6.977-4.149l-13.603-29.965
	l0.762-0.486l48.87-31.23l0,0L258.954,264.045z M304.961,309.33c-1.275,2.535-2.48,4.907-3.6,7.097
	c16.519,1.665,28.859,8.185,28.859,15.966c0,9.039-16.656,16.377-37.171,16.377c-20.516,0-37.172-7.338-37.172-16.377
	c0-7.684,12.034-14.138,28.244-15.902c-1.103-2.154-2.287-4.487-3.541-6.978c-20.634,2.793-35.813,12.114-35.813,23.17
	c0,13.259,21.833,24.024,48.727,24.024c26.892,0,48.727-10.765,48.727-24.024C342.221,321.371,326.328,311.874,304.961,309.33z
	 M298.42,322.135c-0.596,1.149-1.154,2.216-1.667,3.197c7.584,0.703,13.285,3.671,13.285,7.22c0,4.071-7.503,7.377-16.745,7.377
	c-9.241,0-16.745-3.306-16.745-7.377c0-3.38,5.169-6.231,12.209-7.103c-0.503-0.96-1.048-2.003-1.63-3.125
	c-9.014,1.346-15.584,5.477-15.584,10.359c0,5.973,9.836,10.822,21.95,10.822s21.949-4.849,21.949-10.822
	C315.443,327.544,308.166,323.239,298.42,322.135z M202.039,329.729l19.317,11.488l-8.387-18.473L202.039,329.729z M368.023,330.554
	v8.441l18.24,1.086L368.023,330.554z M208.788,313.532L192.406,324l-20.612-12.257l29.974-13.674L208.788,313.532z M264.648,276.561
	l0.456,0.983l-49.517,31.642l-6.553-14.433l48.277-22.024L264.648,276.561z M291.976,108.987c27.637,0,50.076,22.32,50.076,49.812
	s-22.439,49.811-50.076,49.811s-50.075-22.32-50.075-49.811C241.901,131.307,264.339,108.987,291.976,108.987z"></path>
<path id="color_x5F_2" fill-rule="evenodd" clip-rule="evenodd" fill="#FBC02D" d="M233.374,348.363l6.977,4.149l119.683,28.051
	v-54.181l-50.45-26.35c1.192-2.422,2.42-4.941,3.678-7.546l142.819,74.88c2.859,1.499,4.677,4.435,4.746,7.662
	s-1.622,6.236-4.415,7.856c-20.357,11.808-58.133,33.719-79.049,45.851c-9.198,5.335-20.566,5.263-29.695-0.188
	c-39.347-23.49-146.462-87.439-188.861-112.752c-3.437-2.051-5.45-5.84-5.231-9.836c0.221-3.996,2.64-7.54,6.28-9.201
	c22.492-10.261,59.416-27.106,76.786-35.03c6.057-2.763,13.05-2.571,18.946,0.52l3.344,1.753c1.911,4.283,3.824,8.481,5.713,12.56
	l-7.336-3.832l-48.277,22.024l6.553,14.433l49.517-31.642c1.451,3.124,2.888,6.176,4.298,9.138l-49.632,31.716L233.374,348.363z
	 M283.397,378.11l59.163,35.181l27.058-14.974L283.397,378.11z M403.555,349.112l-35.532-2.115v35.438l21.281,4.988l42.535-23.538
	L403.555,349.112z M202.039,329.729l19.317,11.488l-8.387-18.473L202.039,329.729z M368.023,330.554v8.441l18.24,1.086
	L368.023,330.554z M171.794,311.744l20.612,12.257l16.382-10.468l-7.02-15.463L171.794,311.744z M121.489,231.534
	c-6.554,0.027-11.931-5.179-12.119-11.73c-0.187-6.551,4.885-12.055,11.429-12.404c0.492-0.002,0.999-0.015,1.52-0.015
	c1.55,0,3.059,0.178,4.508,0.514c2.874-7.42,10.084-12.688,18.514-12.688c7.589,0,14.188,4.269,17.527,10.534
	c0.91-0.129,1.84-0.195,2.786-0.195c0.544,0,1.073,0.016,1.587,0.047c6.986,0.448,12.355,6.36,12.131,13.357
	c-0.225,6.996-5.961,12.553-12.961,12.553C152.966,231.534,134.747,231.534,121.489,231.534z M291.976,108.987
	c27.637,0,50.076,22.32,50.076,49.812s-22.439,49.811-50.076,49.811s-50.075-22.32-50.075-49.811
	C241.901,131.307,264.339,108.987,291.976,108.987z M411.754,176.701c-5.51,0.001-10.83,0.001-15.527,0.001
	c-6.553,0.026-11.931-5.18-12.119-11.731c-0.187-6.551,4.885-12.055,11.43-12.403c0.492-0.002,0.998-0.016,1.519-0.016
	c1.55,0,3.059,0.178,4.508,0.515c2.874-7.421,10.084-12.689,18.514-12.689c7.589,0,14.189,4.269,17.527,10.534
	c0.911-0.128,1.841-0.194,2.786-0.194c0.544,0,1.074,0.016,1.587,0.047c2.725,0.175,5.204,1.181,7.201,2.758
	c2.912-1.07,6.059-1.654,9.341-1.654c10.366,0,19.381,5.831,23.942,14.389c1.243-0.176,2.514-0.266,3.805-0.266
	c0.686,0,1.353,0.018,2.004,0.054c9.569,0.555,16.962,8.62,16.685,18.2c-0.278,9.581-8.124,17.204-17.709,17.204
	c-18.315,0.034-43.092,0.034-61.172,0.034c-8.978,0.031-16.332-7.124-16.548-16.099C409.451,182.226,410.27,179.249,411.754,176.701
	L411.754,176.701z"></path>
<path id="color_x5F_1" fill-rule="evenodd" clip-rule="evenodd" fill="#245d89" d="M257.22,262.257
	c-5.236-11.897-10.19-23.912-14.803-36.059c-7.271-19.15-14.118-38.687-16.588-58.877c-1.955-15.986,1.224-32.604,9.765-46.099
	c11.967-18.908,33.603-31.136,56.258-31.495c0.436-0.005,0.873-0.006,1.309-0.005c16.64,0.159,33.077,6.607,45.28,17.832
	c13.275,12.212,21.364,29.897,21.822,47.987c0.316,12.436-2.57,24.783-5.934,36.873c-5.565,20.001-13.142,39.383-21.279,58.483
	c-5.465,12.829-11.2,25.541-17.209,38.145c31.547,0.368,63.186,2.046,94.317,6.922c14.368,2.25,28.751,5.07,42.308,10.135
	c7.799,2.914,15.503,6.722,20.916,12.947c1.121,1.288,2.199,2.615,3.225,3.98c5.801,7.725,10.094,16.905,8.927,26.72
	c-0.945,7.937-5.856,15.115-12.352,19.802c-3.008,2.169-6.617,4.346-6.658,8.401c-0.035,3.433,2.568,6.195,4.853,8.428
	c7.811,7.627,18.003,12.438,25.173,21.464c2.623,3.302,4.62,7.441,3.999,11.773c-0.588,4.101-2.884,7.856-6.888,9.95
	c-4.549,2.379-9.682,3.516-14.794,4.572c-15.652,3.237-31.686,4.497-47.728,5.544c-15.231,0.996-30.49,1.54-45.749,1.849
	c-7.934,5.345-17.417,8.709-26.742,7.526c-6.45-0.819-12.523-3.622-17.872-7.359c-46.889-0.539-93.82-2.716-140.253-8.328
	c-19.504-2.357-39.017-5.214-58.007-10.182c-9.927-2.596-20.069-5.482-28.277-11.194c-3.305-2.299-6.027-5.293-7.11-9.423
	c-2.378-9.062-1.157-19.126,5.114-26.14c4.038-4.518,9.651-7.351,15.051-9.936c9.687-4.712,14.801-17.222,10.731-27.504
	c-2.084-5.267-3.833-10.776-3.618-16.471c0.022-0.57,0.1-1.138,0.233-1.693c1.162-4.895,5.754-8.1,10.257-10.573
	c2.57-1.41,5.26-2.588,7.989-3.651c-0.038-1.654,0.274-3.317,0.981-4.855c1.127-2.451,3.137-4.467,5.592-5.625
	c25.625-11.822,51.307-23.519,77.023-35.139c2.903-1.286,6.066-1.953,9.246-1.944c3.554,0.035,7.063,0.912,10.211,2.548
	L257.22,262.257z M154.887,313.007c-0.26,4.44,0.067,9.03,2.284,12.527c0.862,1.359,2.266,2.262,3.598,3.199
	c23.141,16.22,47.277,31.014,71.402,45.856c34.754,21.381,69.897,42.328,104.947,63.201c0,0,5.696,3.527,7.33,4.518
	c6.784,4.114,14.855,6.293,22.657,5.196c6.473-0.911,12.544-3.828,17.967-7.574c0,0,1.271-0.656,1.79-0.934
	c18.195-9.701,36.891-18.544,54.497-29.322c5.623-3.443,11.177-7.067,16.168-11.322c1.922-1.637,2.168-4.014,2.482-6.34
	c0.544-4.04,0.646-8.166,0.276-12.224c-0.716,1.442-1.823,2.72-3.354,3.661c-26.339,15.577-52.877,30.819-79.411,46.062
	c-9.123,5.137-20.86,5.118-30.013-0.19c-63.243-37.393-126.656-74.518-189.252-112.987
	C156.895,315.482,155.759,314.333,154.887,313.007z M152.761,308.258c-5.088,2.029-10.186,4.277-13.974,8.299
	c-1.997,2.12-3.057,4.784-2.786,8.33c0.373,4.849,1.908,9.464,3.627,14.104c3.92,10.786-1.351,24.108-12.087,29.04
	c-1.986,0.912-4.001,1.783-5.902,2.87c-5.678,3.249-10.748,8.053-12.956,14.35c-2.077,5.928-1.618,12.645,0.359,18.562
	c1.044,3.122,3.764,5.43,6.592,7.314c5.11,3.404,10.934,5.61,16.798,7.545c15.335,5.061,31.365,7.925,47.436,10.377
	c31.911,4.868,64.096,7.409,96.278,9.103c20.357,1.072,40.735,1.72,61.12,2.001l0.912,0.012
	c-51.667-30.779-103.402-61.217-153.737-93.796c-8.912-5.768-17.777-11.609-26.428-17.748c-0.607-0.44-0.71-0.562-1.013-0.878
	c-3.155-3.28-3.677-8.487-3.642-13.265c0.009-1.24,0.081-2.478,0.202-3.711c0,0-0.443-1.362-0.621-2.528
	C152.938,308.238,152.831,308.23,152.761,308.258z M315.13,290.531c-0.267,0.556-0.533,1.112-0.801,1.668l142.105,74.505
	c0.012,0.006,0.025,0.013,0.037,0.019c3.56,1.927,5.628,6.135,4.973,10.111c0.873,5.817,0.882,11.837-0.316,17.541
	c-0.406,1.935-1.063,3.783-2.628,5.118c-6.812,5.806-14.485,10.462-22.226,14.951c-15.547,9.014-31.803,16.907-47.634,25.302
	l-0.417,0.224c27.286-0.606,54.599-1.508,81.709-5.754c7.102-1.113,14.322-2.33,20.81-4.962c2.329-0.946,4.539-2.123,6.026-4.3
	c2.004-2.934,2.931-6.643,1.985-10.015c-1.77-6.303-7.496-10.865-13.075-15.245c-6.31-4.954-13.533-9.027-18.343-15.639
	c-1.889-2.596-3.041-6.107-1.581-9.237c1.746-3.742,5.933-5.716,9.171-8.577c6.531-5.772,10.305-14.495,9.023-23.523
	c-1.349-9.49-6.968-18.051-13.467-24.641c-5.166-5.239-12.306-8.313-19.436-10.907c-13.654-4.968-28.048-7.729-42.467-9.936
	c-30.839-4.721-62.029-6.348-93.183-6.7L315.13,290.531z M258.193,264.458c-2.482-1.304-4.958-2.668-7.672-3.33
	c-1.667-0.408-3.37-0.6-5.098-0.593c-2.866,0.033-5.712,0.653-8.33,1.813c-25.737,11.628-51.542,23.112-77.081,35.166
	c-6.293,3.039-7.774,13.365-0.893,17.594c62.872,37.933,125.937,75.548,189.144,112.921c8.628,5.002,19.751,5.116,28.516,0.18
	c26.524-15.236,53.049-30.472,79.378-46.042c4.381-2.693,5.145-9.73,0.909-13.244c-0.397-0.327-0.826-0.617-1.28-0.864l-0.005-0.003
	l-0.049-0.027l-1.03-0.539l-141.025-73.94c-0.999,2.068-2.006,4.134-3.019,6.197l49.724,25.97l0,0l7.987,4.172l0,0l12.829,6.701
	l50.987,26.631l0,0c0.559,0.359,0.478,0.792,0.262,1.083l-0.005,0.025l-0.056,0.048c-0.058,0.066-0.123,0.121-0.185,0.164
	l-42.534,23.537h-0.001l-19.686,10.895l0,0l-7.386,4.087l-19.672,10.887h-0.001c-0.018,0.008-0.038,0.015-0.057,0.021
	c-0.114,0.042-0.242,0.085-0.47,0.034c-0.072-0.013-0.145-0.035-0.217-0.066h-0.001l-13.782-8.196l-58.96-35.062l-36.443-21.671l0,0
	l-11.847-7.044l-19.495-11.593c-3.209-1.908-6.591-3.551-9.626-5.724l-20.612-12.258l0,0c-0.07-0.049-0.281-0.231-0.283-0.485
	c-0.005-0.591,0.313-0.816,0.355-0.84l0.014-0.006l29.96-13.667l0,0v-0.001l7.267-3.315l0,0L257,272.048
	c0.32-0.118,0.341-0.066,0.444-0.056c0.109,0.029,0.109,0.029,0.214,0.073l5.194,2.713
	C261.276,271.348,259.723,267.908,258.193,264.458z M289.901,381.105l39.547,23.516l13.125,7.805l19.297-10.678l5.685-3.146
	l-79.603-18.656L289.901,381.105z M390.107,393.739c1.707-3.316,6.024-4.947,10.27-4.929c5.83,0.077,12.89,4.077,10.18,10.085
	c-0.024,0.053-0.048,0.105-0.073,0.157c-1.769,3.684-6.299,5.141-10.107,5.175c-4.652,0.04-10.11-2.089-10.893-6.755
	c-0.007-0.044-0.014-0.089-0.021-0.133c-0.065-0.441-0.077-0.891-0.036-1.335c0.002-0.021,0.004-0.042,0.006-0.063v-0.001l0,0
	l0.001-0.006l0.002-0.02v-0.006l0.001-0.002v-0.007l0.002-0.015l0.001-0.007v-0.004l0.001-0.009l0.002-0.012l0.001-0.007
	l0.001-0.006l0.001-0.01l0.001-0.009l0.001-0.007l0.001-0.009l0.001-0.01l0.001-0.006l0.001-0.006l0.001-0.012l0.002-0.011v-0.004
	l0.001-0.005l0.002-0.016l0.002-0.009v-0.003v-0.004l0.004-0.023l0.001-0.005v-0.001c0.005-0.034,0.01-0.068,0.016-0.102v-0.001
	l0.001-0.003l0.003-0.022l0.002-0.008v-0.002l0.001-0.003l0.003-0.019l0.002-0.01v-0.002l0.001-0.003l0.003-0.016l0.002-0.013
	l0.001-0.003v-0.002l0.003-0.014l0.003-0.016v-0.002v-0.002l0.003-0.011l0.004-0.02v-0.002l0,0c0.011-0.057,0.024-0.114,0.037-0.171
	l0,0v-0.001l0.006-0.024l0.002-0.008v-0.001l0.001-0.004l0.004-0.018l0.002-0.009l0.001-0.003l0.001-0.006l0.004-0.013l0.002-0.011
	l0.002-0.005l0.001-0.005l0.003-0.01l0.003-0.012l0.001-0.007l0.002-0.005l0.002-0.007l0.003-0.012l0.002-0.01l0.001-0.004
	l0.002-0.005l0.003-0.012l0.003-0.012l0.001-0.005l0.001-0.002l0.003-0.01c0.005-0.021,0.011-0.041,0.017-0.062l0.002-0.008
	l0.004-0.011l0.001-0.004l0.001-0.004C389.753,394.513,389.913,394.114,390.107,393.739z M400.176,390.308h-0.06
	c-0.026,0.001-0.051,0.001-0.077,0.002c-1.176,0.022-2.419,0.209-3.599,0.55c-2.981,0.865-5.551,2.728-5.567,5.456
	c-0.002,0.397,0.05,0.812,0.162,1.244c0.006,0.021,0.011,0.042,0.017,0.063c1.487,5.456,11.549,6.976,16.56,2.686l0.039-0.034
	c0.104-0.09,0.204-0.185,0.301-0.284l0.001-0.001l0.033-0.034l0.004-0.004l0.03-0.031l0.006-0.007l0.027-0.029l0.009-0.009
	l0.024-0.026l0.012-0.013l0.021-0.024l0.014-0.016l0.018-0.02l0.017-0.02l0.015-0.016l0.02-0.024l0.012-0.013l0.023-0.028
	l0.008-0.009l0.026-0.032l0.005-0.006l0.029-0.036l0.002-0.001c1.208-1.495,1.687-3.663,0.546-5.46
	c-0.271-0.424-0.588-0.812-0.946-1.163C406.022,391.13,403.017,390.307,400.176,390.308z M360.784,327.618v52.945
	c-0.098,0.758-0.513,0.771-0.92,0.729l-114.958-26.943l14.546,8.649l24.229,14.408l85.827,20.116l17.733-9.814l-19.388-4.543
	c-0.51-0.166-0.538-0.254-0.578-0.73v-35.438c0.057-0.63,0.216-0.73,0.794-0.748l32.039,1.908l-14.049-7.338l-18.079-1.077
	c-0.4-0.043-0.686-0.355-0.705-0.747v-7.987L360.784,327.618z M430.258,363.903L403.35,349.85l-34.578-2.059v34.05l20.422,4.786
	L430.258,363.903z M268.979,287.842l-48.258,30.839l13.239,29.159l2.164,1.287l4.512,2.683l118.651,27.809v-52.783l-49.29-25.744
	c-1.258,2.55-2.528,5.096-3.809,7.637l0.021,0.003c11.331,1.476,22.861,4.449,31.208,12.488c3.256,3.136,5.779,7.406,5.537,12.121
	l-0.003,0.057l-0.001,0.005v0.008c-0.002,0.031-0.004,0.063-0.006,0.095c-0.219,3.407-1.863,6.541-4.204,9.218
	c-1.251,1.434-2.701,2.736-4.237,3.87c-3.305,2.443-6.972,4.339-10.838,5.822c-4.879,1.877-10.075,3.095-15.295,3.908
	c-9.485,1.494-19.225,1.636-28.69,0.219h-0.002l-0.013-0.002l-0.074-0.011l-0.012-0.002c-4.177-0.627-8.299-1.559-12.32-2.817
	c-4.949-1.541-9.881-3.586-14.018-6.495c-2.291-1.609-4.34-3.484-6.008-5.686c-2.526-3.335-3.798-7.621-2.86-11.806
	c0.078-0.349,0.438-1.511,0.471-1.601c2.278-6.2,8.161-10.279,13.843-13.082c2.301-1.139,7.845-3.226,10.367-3.852
	c4.058-1.01,9.57-2.147,10.314-2.259C275.828,301.938,272.36,294.909,268.979,287.842z M305.47,310.148
	c-0.956,1.889-1.918,3.773-2.885,5.657c8.525,0.955,17.24,2.833,23.897,8.432c0.506,0.425,0.996,0.893,1.453,1.396
	c2.305,2.472,3.73,5.588,2.696,9.091c-0.148,0.506-0.338,0.995-0.563,1.466c-1.921,4.073-6.188,6.59-10.18,8.355
	c-6.72,3.06-14.089,4.559-21.587,4.954c-5.127,0.289-10.315,0.053-15.429-0.595c-8.327-1.007-16.881-3.035-23.197-8.307
	c-1.012-0.844-1.939-1.83-2.687-2.916c-1.504-2.14-2.287-4.646-1.597-7.339l0.001-0.002l0.001-0.003l0.004-0.018l0.003-0.009
	c0.022-0.085,0.045-0.17,0.07-0.255c0.196-0.665,0.455-1.294,0.768-1.889c2.262-4.373,7.178-6.959,12.046-8.793
	c4.675-1.825,9.659-2.886,14.634-3.496c-0.95-1.844-1.895-3.688-2.834-5.537c-0.271,0.039-0.542,0.078-0.813,0.119
	c-1.138,0.171-2.279,0.358-3.42,0.564c-9.472,1.722-18.869,4.865-25.578,11.607c-0.032,0.032-1.175,1.262-1.605,1.817
	c-2.078,2.678-3.448,5.959-3.093,9.396c0.005,0.048,0.337,1.935,0.646,2.789c0.383,1.058,0.908,2.072,1.545,3.037
	c1.644,2.496,4.028,4.665,6.588,6.417c0.041,0.028,0.081,0.056,0.122,0.083c0.514,0.35,2.174,1.379,2.174,1.379l0.002,0.001
	c6.908,4.09,14.954,6.235,23.039,7.423l0.286,0.041c12.654,1.816,25.765,1.24,37.968-2.327c0,0,0.986-0.295,1.332-0.403
	c7.203-2.248,14.421-5.572,18.975-11.262c2.014-2.517,3.279-5.658,3.171-8.875c-0.024-0.72-0.117-1.444-0.285-2.166
	c-0.025-0.106-0.752-2.229-0.993-2.722c-2.095-4.279-6.188-7.367-10.191-9.644c-0.594-0.338-1.196-0.662-1.804-0.975
	c-0.414-0.208-0.827-0.409-1.238-0.603c-6.186-2.929-12.933-4.659-19.725-5.652C306.616,310.299,306.043,310.221,305.47,310.148z
	 M301.85,317.232c-0.74,1.434-1.485,2.868-2.232,4.3c4.858,0.671,9.769,2.095,13.383,5.18c2.149,1.835,3.715,4.588,3.011,7.46
	c-1.19,4.852-6.726,7.527-12.397,8.899c-7.268,1.901-15.246,1.815-22.182-0.513c-1.444-0.477-2.839-1.057-4.169-1.744
	c-3.744-1.937-7.618-5.358-6.19-9.974c0.21-0.692,0.514-1.331,0.893-1.923c1.643-2.591,4.636-4.22,7.409-5.326
	c0.422-0.17,0.846-0.328,1.274-0.476l0.028-0.01l0.023-0.008l0.007-0.002l0.007-0.002c1.71-0.59,3.473-1.025,5.253-1.338
	c-0.772-1.478-1.541-2.958-2.307-4.441c-0.189,0.017-0.606,0.057-0.606,0.057c-5.857,0.741-11.784,2.036-17.003,4.578
	c-0.908,0.442-1.796,0.924-2.662,1.447c-0.042,0.025-0.085,0.051-0.127,0.077c-0.03,0.018-0.06,0.037-0.09,0.055
	c-3.332,2.057-6.726,5.095-6.546,9.103c0.014,0.293,0.046,0.59,0.099,0.894l0.008,0.043l0.009,0.05
	c0.797,4.259,4.87,6.931,8.395,8.746l0.008,0.004c8.426,4.337,18.234,5.653,27.905,5.653c0.093,0,0.185,0,0.278,0l0.198-0.001
	c8.322-0.046,16.754-1.171,24.361-4.254l0.008-0.003l0.083-0.034l0.017-0.007l0.075-0.031l0.024-0.009l0.068-0.029l0.028-0.011
	l0.065-0.027l0.027-0.011l0.066-0.028l0.021-0.008l0.073-0.031l0.003-0.001c0.091-0.038,0.182-0.077,0.272-0.116
	c0.069-0.029,0.138-0.059,0.207-0.089c5.03-2.182,10.453-5.702,10.562-10.661c0.01-0.483-0.03-0.982-0.126-1.495l-0.007-0.04
	l-0.001-0.006l0,0l-0.007-0.034c-0.709-3.57-3.855-6.05-6.8-7.799c-0.039-0.023-0.078-0.046-0.117-0.069
	c-0.036-0.021-0.072-0.042-0.107-0.063C316.184,319.595,308.972,318.009,301.85,317.232z M264.67,278.711l-48.679,31.107
	c-0.577,0.303-0.79,0.205-1.086-0.322l-6.242-13.749l-5.905,2.693l6.712,14.783c0,0,0.229,0.548-0.279,0.941l-15.358,9.814
	l8.192,4.871l10.542-6.736c0.577-0.304,0.79-0.205,1.085,0.322l8.29,18.258l7.794,4.635l1.97,1.171l-12.617-27.79
	c-0.117-0.368-0.033-0.684,0.279-0.941l48.961-31.288C267.097,283.896,265.878,281.306,264.67,278.711z M298.878,322.946
	c-0.308,0.586-0.616,1.174-0.925,1.76c1.463,0.171,2.929,0.411,4.352,0.784c2.286,0.583,4.473,1.505,6.353,3.106
	c0.513,0.436,0.979,0.968,1.34,1.558c0.679,1.088,1.001,2.369,0.591,3.656c-1.1,3.459-5.372,5.228-9.852,6.131
	c-3.377,0.762-6.915,1.032-10.355,0.759c-4.182-0.253-8.222-1.281-11.5-3.475c-0.127-0.085-0.253-0.174-0.376-0.266
	c-1.849-1.344-3.155-3.169-2.577-5.425c0.002-0.011,0.005-0.021,0.008-0.031c0.782-2.97,3.94-4.461,6.585-5.395
	c0.625-0.223,1.258-0.418,1.899-0.588c0.729-0.195,1.466-0.36,2.208-0.497h0.001h0.001l0.025-0.005l0.013-0.002
	c0.277-0.052,0.554-0.1,0.833-0.145l0.09-0.014c-0.299-0.568-0.597-1.138-0.895-1.706l-0.008,0.001
	c-4.397,0.719-8.913,2.016-12.154,5.081l-0.022,0.021c-1.505,1.431-2.554,3.622-2.025,5.724c0.239,0.95,0.671,1.531,0.671,1.531
	l0.001,0.002c1.808,2.989,5.6,4.669,9.392,5.775l0.224,0.065c8.457,2.398,18.036,2.1,25.724-1.6
	c0.044-0.021,0.181-0.088,0.181-0.088c0.552-0.273,2.429-1.433,2.429-1.433c0.149-0.106,0.689-0.521,0.811-0.623
	c1.938-1.615,3.494-4.342,2.324-6.955c-0.312-0.698-0.734-1.331-1.24-1.907c-1.62-1.836-4.109-3.088-6.58-4.006
	c-0.098-0.037-0.356-0.13-0.356-0.13c-0.35-0.124-1.571-0.509-1.571-0.509h-0.002c-1.355-0.399-2.738-0.703-4.132-0.935
	C299.87,323.082,299.374,323.009,298.878,322.946z M203.467,329.706l16.221,9.647l-7.042-15.512
	C209.586,325.796,206.526,327.751,203.467,329.706z M297.377,326.15l-0.055-0.006l-0.01-0.001l-0.111-0.013l-0.012,0.022
	c-1.121,2.117-2.249,4.233-3.386,6.345c0,0-0.548,0.946-0.592,0.981c-0.979,0.999-1.564-0.974-2.307-2.364
	c-0.861-1.616-1.718-3.234-2.572-4.853l-0.16,0.022l-0.127,0.019c-0.723,0.109-1.452,0.229-2.178,0.374
	c-2.712,0.549-5.357,1.472-7.313,3.376c-0.586,0.57-1.047,1.348-1.172,2.171c-0.085,0.572-0.009,1.166,0.299,1.72l0.018,0.033
	c0.762,1.354,2.025,2.336,3.553,3.06l0.044,0.021c0.668,0.314,1.387,0.578,2.136,0.804l0.051,0.015
	c1.754,0.523,3.674,0.834,5.516,1.054c6.054,0.723,12.661,0.286,17.553-2.745c1.414-0.876,2.876-2.145,2.729-3.841
	c-0.005-0.058-0.046-0.318-0.046-0.318l-0.003-0.018c-0.332-1.622-1.896-2.679-3.242-3.417l-0.059-0.032l-0.046-0.024
	c-1.539-0.826-3.206-1.393-4.926-1.789C299.78,326.477,298.579,326.288,297.377,326.15z M368.772,331.79v6.498l14.043,0.836
	l-2.31-1.206L368.772,331.79z M314.231,289.129c10.02-20.846,19.252-42.003,27.401-63.463c7.216-19.005,14.045-38.448,16.501-58.528
	c1.93-15.777-1.247-32.184-9.757-45.452c-11.774-18.356-33.065-30.117-54.797-30.463c-0.426-0.004-0.853-0.005-1.28-0.004
	c-16.276,0.155-32.343,6.46-44.275,17.437c-12.982,11.942-20.892,29.231-21.34,46.922c-0.304,11.995,2.438,23.906,5.648,35.594
	c5.474,19.929,12.987,39.215,21.061,58.233c2.019,4.753,4.077,9.491,6.174,14.212c0.015,0.023,0.032,0.049,0.053,0.079
	c1.861,4.166,3.753,8.32,5.668,12.463c0.085,0.12,0.569,1.279,0.586,1.36c1.34,2.895,11.163,23.249,14.747,30.403l0.629,1.253l0,0
	c1.036,2.056,2.076,4.11,3.121,6.158l0.414,0.811l0.003,0.004c0.998,1.947,1.999,3.889,3.004,5.83l0.001,0.002
	c0.413,0.795,4.931,9.36,4.931,9.36c1.131-2.113,2.25-4.233,3.364-6.356c0,0,0.017-0.021,0.047-0.054
	c0.211-0.671,0.777-1.521,1.18-2.295l0.417-0.788c0.006-0.019,0.013-0.038,0.021-0.057c0.984-1.898,1.964-3.8,2.939-5.706
	l0.003-0.003c1.206-2.36,2.404-4.723,3.596-7.089l0,0c1.551-3.087,3.091-6.185,4.621-9.291l0,0
	C310.148,297.189,313.926,289.266,314.231,289.129z M201.396,299.062l-27.989,12.768l18.985,11.29l15.445-9.87L201.396,299.062z
	 M210.027,295.125l5.886,12.965l48.121-30.751l-0.155-0.336l-6.59-3.441L210.027,295.125z M233.968,273.065h0.018
	c0.009,0.001,0.017,0.001,0.026,0.001c1.799,0.071,3.63,1.852,2.409,3.371c-0.163,0.203-0.367,0.364-0.595,0.483l-0.003,0.002l0,0
	l-0.001,0.001l-0.016,0.008l-0.007,0.003l0,0l0,0l-0.015,0.007c-14.498,6.804-29.127,13.334-43.822,19.704l-0.074,0.032
	c-1.684,0.678-3.617-0.285-4.355-2.046c-0.007-0.015-0.013-0.029-0.019-0.043c-0.017-0.033-0.033-0.067-0.048-0.101
	c-0.437-1.052,0.817-1.702,1.983-2.208c0.502-0.239,1.044-0.462,1.558-0.681c13.041-5.789,26.194-11.384,39.181-17.2l0.111-0.05
	C231.516,273.804,232.702,273.056,233.968,273.065z M235.237,275.514c0.233-0.296-0.572-0.955-1.352-0.951
	c-0.019,0-0.038,0.001-0.058,0.002c-0.93,0.046-1.915,0.703-2.914,1.151c-13.358,5.984-26.985,11.749-40.367,17.728l-0.012,0.005
	c-0.357,0.161-0.766,0.33-1.076,0.471c-0.274,0.138-0.463,0.276-0.438,0.405c0.316,0.753,1.165,1.205,1.964,1.064l0,0l0.021-0.004
	l0.006-0.001l0.015-0.003l0.009-0.002l0.012-0.002l0.011-0.003l0.01-0.002l0.012-0.003l0.009-0.002l0.012-0.003l0.01-0.002
	l0.012-0.004l0.009-0.002l0.012-0.003l0.01-0.003l0.011-0.003l0.01-0.003l0.012-0.004l0.01-0.003l0.011-0.004l0.01-0.003
	l0.011-0.004l0.011-0.003l0.01-0.004l0.011-0.004l0.01-0.004l0.01-0.003l0.011-0.005l0.004-0.001l0.017-0.007l0.057-0.024
	c14.672-6.364,29.173-13.117,43.759-19.676l0.009-0.004C235.175,275.572,235.209,275.545,235.237,275.514z M145.525,194.464
	c7.16,0.094,14.01,4.042,17.67,10.326l0.084,0.148c0.185-0.022,0.371-0.039,0.556-0.056c3.8-0.318,7.691,0.391,10.694,2.6
	c4.916,3.615,6.919,10.72,4.521,16.394c-2.059,4.872-7.09,8.28-12.467,8.38c-15.057,0.093-45.416,0.025-45.579,0.02
	c-6.635-0.263-12.447-6.237-12.388-12.937c0.056-6.429,5.483-12.29,12.158-12.688c1.848-0.012,3.7,0.02,5.512,0.368
	c0,0,1.384-2.924,3.231-5.139c3.808-4.567,9.656-7.329,15.618-7.416C145.33,194.463,145.33,194.463,145.525,194.464z
	 M145.151,195.963c-7.602,0.112-14.818,5.061-17.627,12.212c0,0-0.025,0.623-1.392,0.341c-1.688-0.336-3.415-0.386-5.14-0.367
	c0,0-2.31,0.156-4.071,0.922c-5.344,2.326-8.203,9.173-5.977,14.652c1.668,4.106,5.875,6.996,10.398,7.062
	c15.073,0.032,30.096,0.067,45.222-0.027c6.171-0.115,11.775-5.426,12.052-11.672c0.293-6.572-5.385-12.624-12.374-12.778
	c-1.095-0.025-2.189,0.033-3.274,0.181c0,0-0.393,0.262-0.993-0.811c-3.288-5.756-9.587-9.566-16.293-9.713
	C145.505,195.963,145.328,195.962,145.151,195.963z M291.32,108.242c0.062,0,0.978-0.003,0.978-0.003h0.013
	c13.819,0.133,27.442,6.054,36.866,16.123c0.092,0.098,0.184,0.197,0.276,0.297c1.907,2.071,3.633,4.306,5.163,6.667
	c4.911,7.58,7.802,16.472,8.148,25.513l0.001,0.007c0.33,8.626-1.604,17.318-5.542,24.987c-0.509,0.99-1.846,3.278-1.957,3.458
	c-2.939,4.736-6.676,8.965-10.984,12.501c-4.586,3.765-9.82,6.743-15.424,8.708c-0.038,0.013-0.296,0.103-0.296,0.103
	c-10.754,3.694-22.735,3.661-33.467-0.103c-2.787-0.978-5.477-2.21-8.039-3.668c-2.165-1.198-4.244-2.556-6.208-4.074
	c-8.32-6.426-14.582-15.473-17.591-25.525c-0.016-0.053-1.092-4.185-1.404-6.06c-0.315-1.889-0.656-6.544-0.656-6.544
	c-0.241-6.831,0.89-13.707,3.371-20.076l0.811-1.953l0.032-0.071l0.006-0.014C253.237,120.91,271.51,108.556,291.32,108.242z
	 M292.785,109.743c-0.057-0.001-0.806-0.007-1.125-0.006h-0.003l-0.027,0.001c-13.438,0.134-26.637,5.899-35.76,15.648
	c-0.041,0.043-0.081,0.086-0.121,0.129c-7.854,8.456-12.593,19.745-13.059,31.289l-0.004,0.1
	c-0.426,11.149,3.227,22.324,9.864,31.257c2.509,3.377,5.444,6.433,8.747,9.047c0.341,0.271,0.686,0.535,1.035,0.796
	c3.389,2.53,7.112,4.587,11.037,6.151c10.976,4.373,23.519,4.876,34.708,1.031l0.019-0.007c0.364-0.125,0.726-0.255,1.087-0.39
	c14.219-5.293,25.738-17.481,30.079-31.985c3.092-10.333,2.638-21.671-1.271-31.706c-0.02-0.049-0.039-0.099-0.058-0.148
	c-4.531-11.513-13.584-20.885-24.702-26.259C306.929,111.644,299.965,109.883,292.785,109.743z M410.497,177.478
	c-4.807-0.006-14.591-0.03-14.753-0.034c-6.635-0.263-12.448-6.238-12.389-12.938c0.057-6.429,5.483-12.29,12.158-12.687
	c1.848-0.013,3.701,0.019,5.512,0.367c0,0,1.436-3.027,3.354-5.284c3.81-4.486,9.591-7.184,15.495-7.271
	c0.195,0,0.194-0.001,0.388,0c7.16,0.095,14.01,4.043,17.67,10.326l0.085,0.149c0.185-0.022,0.37-0.04,0.555-0.057
	c3.8-0.317,7.691,0.392,10.694,2.6l0.045,0.033c3.043-1.058,6.261-1.574,9.457-1.56c9.847,0.13,19.311,5.766,24.105,14.328
	c0.224-0.026,0.224-0.026,0.447-0.051c4.636-0.468,9.401,0.118,13.317,2.434c7.384,4.368,10.965,14.28,7.887,22.429
	c-2.602,6.89-9.58,11.799-17.045,11.938c-20.533,0.126-61.841,0.031-62.059,0.025c-7.569-0.305-14.541-6.007-16.219-13.403
	C408.343,185.039,408.815,180.99,410.497,177.478z M412.175,177.48c-0.073,0.136-0.145,0.273-0.215,0.41
	c-3.092,6.175-1.559,14.306,3.625,18.894c2.808,2.484,6.494,3.893,10.286,3.952c20.529,0.058,41.248,0.09,61.59-0.035
	c6.819-0.127,13.276-4.65,15.663-10.97c2.04-5.403,1.072-11.832-2.467-16.393c-4.076-5.252-11.156-7.283-18.094-6.337
	c0,0-0.513-0.022-0.761-0.388c-4.453-8.271-13.329-13.782-22.81-13.991c-0.207-0.003-0.414-0.004-0.621-0.004
	c-2.568,0.021-5.13,0.408-7.589,1.156c0,0-0.292-0.141,0.316,0.488c0.955,1.022,1.718,2.189,2.289,3.446
	c1.688,3.552,1.938,7.82,0.338,11.485c-0.496,1.138-1.157,2.192-1.945,3.142c-0.496,0.636-1.058,1.229-1.684,1.769
	c-2.383,2.051-5.472,3.228-8.648,3.316h-0.001h-0.003C441.443,177.421,421.896,177.491,412.175,177.48z M453.351,163.186
	c-0.326-6.146-5.761-11.565-12.37-11.712c-1.094-0.024-2.189,0.033-3.274,0.181c0,0-0.392,0.263-0.993-0.81
	c-3.287-5.756-9.587-9.566-16.293-9.713c-0.177-0.003-0.355-0.003-0.531-0.003c-7.602,0.112-14.818,5.061-17.627,12.212
	c0,0-0.025,0.624-1.392,0.342c-1.688-0.337-3.416-0.387-5.141-0.368c0,0-2.31,0.156-4.07,0.922
	c-5.347,2.328-8.204,9.174-5.978,14.652c1.669,4.106,5.875,6.996,10.398,7.062c5.18,0.012,10.353,0.023,15.527,0.03
	c0.046-0.015,0.095-0.025,0.147-0.03c9.832-0.004,19.652,0.034,29.531-0.026h0.018c3.098-0.058,6.055-1.427,8.265-3.566
	C451.965,169.96,453.456,166.613,453.351,163.186z"></path>
</svg>