<?xml version="1.0" standalone="no"?>
<svg version="1.1" id="Layer_1" xmlns="http://www.w3.org/2000/svg" xmlns:xlink="http://www.w3.org/1999/xlink" x="0px" y="0px" viewBox="0 0 595.276 595.276" enable-background="new 0 0 595.276 595.276" xml:space="preserve">
<path id="color_x5F_7" fill="#5BA9FB" d="M216.901,315.307v-11.351h11.121v-33.564h-57.577v33.564H212L216.901,315.307z
	 M191.337,297.34l-3.027-0.53l-0.019,0.057l2.062,2.327l-1.684,0.984l-1.078-2.932l-0.038,0.019l-1.098,2.913l-1.627-0.984
	l2.024-2.365v-0.039l-2.97,0.549v-1.911l2.932,0.586l0.019-0.038l-2.006-2.384l1.684-0.964l1.06,2.895h0.038l1.078-2.895
	l1.665,0.946l-2.043,2.403l0.018,0.057l3.009-0.605V297.34z M202.961,297.34l-3.027-0.53l-0.019,0.057l2.062,2.327l-1.684,0.984
	l-1.078-2.932l-0.038,0.019l-1.098,2.913l-1.627-0.984l2.024-2.365v-0.039l-2.97,0.549v-1.911l2.933,0.586l0.019-0.038l-2.006-2.384
	l1.684-0.964l1.06,2.895h0.038l1.078-2.895l1.665,0.946l-2.043,2.403l0.018,0.057l3.009-0.605V297.34z M203.825,288.124h-9.184
	v-8.075h0.831v-2.818c0-2.074,1.687-3.761,3.761-3.761s3.761,1.687,3.761,3.761v2.818h0.831V288.124z M210.837,297.245l-0.038,0.019
	l-1.098,2.913l-1.627-0.984l2.024-2.365v-0.039l-2.97,0.549v-1.911l2.932,0.586l0.019-0.038l-2.006-2.384l1.684-0.964l1.06,2.895
	h0.038l1.078-2.895l1.665,0.946l-2.044,2.403l0.019,0.057l3.008-0.605v1.911l-3.027-0.53l-0.018,0.057l2.062,2.327l-1.684,0.984
	L210.837,297.245z M201.142,277.231v2.818h-3.819v-2.818c0-1.053,0.857-1.91,1.91-1.91S201.142,276.178,201.142,277.231z
	 M263.967,234.787v-11.351h11.121v-33.564h-57.577v33.564h41.556L263.967,234.787z M225.488,193.835h41.622c0.552,0,1,0.448,1,1
	s-0.448,1-1,1h-41.622c-0.552,0-1-0.448-1-1S224.936,193.835,225.488,193.835z M225.488,198.893h41.622c0.552,0,1,0.448,1,1
	s-0.448,1-1,1h-41.622c-0.552,0-1-0.448-1-1S224.936,198.893,225.488,198.893z M224.488,204.952c0-0.552,0.448-1,1-1h41.622
	c0.552,0,1,0.448,1,1s-0.448,1-1,1h-41.622C224.936,205.952,224.488,205.504,224.488,204.952z M238.404,216.122l-3.027-0.53
	l-0.019,0.057l2.062,2.327l-1.684,0.984l-1.078-2.933l-0.038,0.019l-1.098,2.913l-1.627-0.984l2.024-2.365v-0.039l-2.97,0.549
	v-1.911l2.932,0.586l0.019-0.038l-2.006-2.384l1.684-0.964l1.06,2.895h0.038l1.078-2.895l1.665,0.946l-2.043,2.403l0.018,0.057
	l3.009-0.605V216.122z M250.028,216.122l-3.027-0.53l-0.019,0.057l2.062,2.327l-1.684,0.984l-1.078-2.933l-0.038,0.019l-1.098,2.913
	l-1.627-0.984l2.024-2.365v-0.039l-2.97,0.549v-1.911l2.932,0.586l0.019-0.038l-2.006-2.384l1.684-0.964l1.06,2.895h0.038
	l1.078-2.895l1.665,0.946L247,214.76l0.018,0.057l3.009-0.605V216.122z M257.904,216.028l-0.038,0.019l-1.098,2.913l-1.627-0.984
	l2.024-2.365v-0.039l-2.97,0.549v-1.911l2.932,0.586l0.019-0.038l-2.006-2.384l1.684-0.964l1.06,2.895h0.038l1.078-2.895
	l1.665,0.946l-2.044,2.403l0.019,0.057l3.008-0.605v1.911l-3.027-0.53l-0.018,0.057l2.062,2.327l-1.684,0.984L257.904,216.028z"></path>
<path id="color_x5F_6" fill="#263238" d="M275.656,268.896l-3.522-29.051h0.612l3.522,29.051H275.656z M264.407,259.003
	c0.216-0.501,1.017-0.286,0.961,0.199c-0.249,2.153-0.42,4.325-0.198,6.46c0.004,0.038,0.011,0.076,0.016,0.114
	c0.118-0.085,0.236-0.169,0.354-0.246c-0.367-2.832,0.213-5.948,1.273-8.406c0.216-0.502,1.017-0.286,0.961,0.199
	c-0.249,2.153-0.42,4.325-0.198,6.46c0.028,0.265,0.067,0.528,0.112,0.789c0.004-0.001,0.009-0.002,0.013-0.003
	c-0.108-2.509,0.446-5.138,1.367-7.272c0.216-0.502,1.017-0.286,0.961,0.199c-0.249,2.153-0.42,4.325-0.198,6.46
	c0.012,0.117,0.032,0.231,0.047,0.347c0.119-0.001,0.239,0,0.361,0.003c0.027-2.259,0.558-4.561,1.381-6.468
	c0.216-0.502,1.017-0.286,0.961,0.199c-0.249,2.153-0.42,4.325-0.198,6.46c0.978,1.472,1.854,2.924,2.453,4.4h0.818l-3.522-29.051
	h-14.188h-0.612l3.522,29.051h0.612h1.971C262.585,265.712,263.155,261.903,264.407,259.003z M535.932,541.943
	c0,1.968-1.595,3.562-3.562,3.562H81.715c-1.968,0-3.563-1.595-3.563-3.562s1.595-3.563,3.563-3.563h89.406v-82.115v-0.984V368.55
	c0-0.895,0.072-1.723,0.189-2.442h-8.986v-4.766h15.138h1.04h23.694l-9.901-42.679h1.888h63.559l9.901,42.679h31.958h3.12h21.808
	h8.61h11.337h5.42h52.913v4.766h-7.769c0.117,0.719,0.189,1.547,0.189,2.442v40.31v1.16v75.325v0.81v52.226h56.483h6.703h15.895
	h6.536h51.525C534.337,538.381,535.932,539.976,535.932,541.943z M392.752,366.108h-42.855h-12.07
	c0.117,0.719,0.189,1.547,0.189,2.442v52.558v33.583v63.954v5.822v0.762v13.152h4.988h49.558v-51.034v-0.815V368.55
	C392.562,367.655,392.634,366.827,392.752,366.108z M231.113,366.108c0.117,0.719,0.189,1.547,0.189,2.442v48.841v1.075v72.07v0.79
	v47.054h66.907h37.141v-13.3v-6.435V368.55c0-0.895,0.072-1.723,0.189-2.442h-2.4h-30.181H231.113z M173.788,538.381h54.849v-48.088
	v-0.794V368.55c0-0.895,0.072-1.723,0.189-2.442h-55.227c0.117,0.719,0.189,1.547,0.189,2.442v88.931v0.962V538.381z
	 M267.643,361.342h31.958l-0.696-3h-30.07l-9.205-39.679h-1.888L267.643,361.342z"></path>
<path id="color_x5F_5" fill="#FFD2BB" d="M308.555,306.064l-7.349,7.693c-3.133,3.764-8.926,3.723-12.006-0.084l-22.047-34.279
	c-1.695-2.879-2.814-6.039-3.321-9.304c-0.158-0.384-0.284-0.785-0.393-1.193c-0.854-3.185-0.284-6.993,0.968-9.894
	c0.216-0.501,1.017-0.286,0.961,0.199c-0.249,2.153-0.42,4.325-0.198,6.46c0.004,0.038,0.011,0.076,0.016,0.114
	c0.118-0.085,0.236-0.169,0.354-0.246c-0.367-2.832,0.213-5.948,1.273-8.406c0.216-0.502,1.017-0.286,0.961,0.199
	c-0.249,2.153-0.42,4.325-0.198,6.46c0.028,0.265,0.067,0.528,0.112,0.789c0.004-0.001,0.009-0.002,0.013-0.003
	c-0.108-2.509,0.446-5.138,1.367-7.272c0.216-0.502,1.017-0.286,0.961,0.199c-0.249,2.153-0.42,4.325-0.198,6.46
	c0.012,0.117,0.032,0.231,0.047,0.347c0.119-0.001,0.239,0,0.361,0.003c0.027-2.259,0.558-4.561,1.381-6.468
	c0.216-0.502,1.017-0.286,0.961,0.199c-0.249,2.153-0.42,4.325-0.198,6.46c0.978,1.472,1.854,2.924,2.453,4.4
	c0.946,2.332,1.194,4.725,0.018,7.356l17.419,15.4l4.735-10.393l12.352,11.534C309.185,297.223,308.907,301.646,308.555,306.064z
	 M358.244,504.64l1.793,1.78l3.814-0.14c1.313-0.048,2.579-0.504,3.623-1.303l4.439-3.402l-3.775-5.3l-0.058-0.081L358.244,504.64z
	 M338.016,518.646v5.822l0.529-5.822H338.016z M325.781,521.164l2.984,2.378c1.028,0.819,2.285,1.299,3.597,1.372l2.987,0.167
	v-6.435h-9.769L325.781,521.164z M324.79,252.081c4.022-4.301,8.502-8.112,13.747-10.594l-0.079-0.941l-0.978-11.612l-0.1-1.188
	c0.266-1.114,0.422-2.271,0.422-3.467c1.159-0.602,1.958-1.812,1.958-3.202v-2.516c0-1.984-1.623-3.607-3.607-3.607
	c-1.984,0-3.607,1.623-3.607,3.607v1.426h-2.009l-2.34-11.847l-2.952-1.518l-0.995-5.675h-15.883v8.384v19.108
	c0,5.933,4.81,10.743,10.743,10.743h2.484l0.434,5.157l0.667,7.92L324.79,252.081z M336.028,331.389
	c3.561-1.52,7.072-3.159,10.519-4.923c3.456-1.768,5.877-5.061,6.465-8.898l3.608-23.535l-21.779-3.557
	c-0.489,6.655-0.976,13.309-1.322,19.699c-2.69,1.762-5.799,3.659-9.123,5.627c0.321,0.724,0.675,1.436,1.057,2.137
	c1.146,2.103,2.547,4.108,4.076,6.041c1.019,1.289,2.096,2.545,3.191,3.777c-1.096-1.232-2.172-2.489-3.191-3.777
	c-1.529-1.933-2.93-3.938-4.076-6.041c-0.382-0.701-0.736-1.413-1.057-2.137c-5.639,3.338-11.928,6.887-18.008,10.368
	c-6.697,3.834-13.139,7.586-18.167,10.879c0.006,0.01,0.013,0.02,0.019,0.031c-2.752,1.318-5.213,3.135-7.268,5.346
	c-2.801,1.86-4.661,5.519-5.27,8.737c-0.093,0.493,0.628,0.741,0.834,0.343c0.919-1.767,1.907-3.509,3.175-5.02
	c0.023-0.027,0.048-0.052,0.071-0.079c0.046,0.125,0.092,0.25,0.143,0.369c-1.737,1.968-2.9,4.638-3.358,7.056
	c-0.093,0.493,0.628,0.741,0.834,0.343c0.919-1.767,1.907-3.509,3.175-5.02c0.157-0.188,0.323-0.368,0.491-0.544
	c0.003,0.003,0.006,0.006,0.008,0.009c-1.374,1.855-2.306,4.142-2.703,6.241c-0.093,0.493,0.628,0.741,0.835,0.343
	c0.919-1.767,1.907-3.509,3.175-5.02c0.069-0.083,0.143-0.16,0.215-0.24c0.09,0.062,0.182,0.123,0.277,0.184
	c-1.142,1.734-1.924,3.76-2.279,5.635c-0.093,0.493,0.628,0.741,0.834,0.343c0.919-1.767,1.907-3.509,3.175-5.02
	c3.847-1.58,7.127-3.393,7.913-7.581c3.866-0.554,7.712-1.241,11.533-2.05C315.004,339.137,325.737,335.781,336.028,331.389
	L336.028,331.389z"></path>
<path id="color_x5F_4" fill="#00CEC9" d="M308.366,200.946v8.384c-3.485-2.179-6.102-5.775-6.912-9.815
	c-1.102-5.503,1.555-11.329,6.038-14.704c0.634,1.192,1.996,1.851,3.338,2.002c1.341,0.152,2.69-0.124,4.017-0.373
	c5.438-1.021,11.186-1.601,16.399,0.255c5.212,1.856,8.325,6.563,8.064,12.09c2.087,0.832,3.48,2.918,4.002,5.103
	c0.522,2.185,0.296,4.477-0.049,6.697c-0.99,6.362-2.955,12.566-5.783,18.35l-0.1-1.188c0.266-1.114,0.422-2.271,0.422-3.467
	c1.159-0.602,1.958-1.812,1.958-3.202v-2.516c0-1.984-1.623-3.607-3.607-3.607c-1.984,0-3.607,1.623-3.607,3.607v1.426h-2.009
	l-2.34-11.847l-2.952-1.518l-0.995-5.675H308.366z"></path>
<path id="color_x5F_3" fill="#E84393" d="M367.473,504.976l4.439-3.402l1.003-0.769c0,0,7.081,3.259,11.141,7.103
	c0.612,0.58,0.602,1.556-0.038,2.105l-32.281,27.726c-0.51,0.438-1.303,0.186-1.467-0.466l-0.487-1.941
	c-0.689-2.745-0.072-5.654,1.671-7.882l4.035-5.159c2.092-2.675,4.36-6.017,4.09-9.402l-0.563-6.433l1.02-0.037l3.814-0.14
	C365.164,506.231,366.43,505.776,367.473,504.976z M339.209,525.296l-1.193-0.066v13.152h4.988c0.029-0.141,0.044-0.286,0.029-0.438
	C342.457,532.382,339.209,525.296,339.209,525.296z M328.766,523.542l-2.984-2.378l-0.798-0.636l-3.764,5.247
	c-2.001,2.743-5.899,3.801-9.229,4.467l-6.422,1.284c-2.775,0.555-5.138,2.36-6.403,4.891l-0.895,1.79
	c-0.029,0.057-0.045,0.116-0.06,0.174h37.141v-13.3l-2.987-0.167C331.051,524.841,329.794,524.362,328.766,523.542z"></path>
<path id="color_x5F_2" fill="#FBC02D" d="M441.338,237.147c-0.473-1.133-0.96-2.259-1.461-3.377c-0.105-0.233,0-0.506,0.233-0.611
	c0.232-0.104,0.505-0.001,0.61,0.233c0.504,1.126,0.995,2.259,1.47,3.399c0.098,0.235-0.013,0.505-0.248,0.604
	c-0.058,0.024-0.118,0.036-0.178,0.036C441.583,237.431,441.412,237.324,441.338,237.147z M439.965,352.369
	c-0.503,1.128-1.02,2.249-1.551,3.361c-0.11,0.231-0.013,0.506,0.217,0.616c0.065,0.031,0.133,0.045,0.199,0.045
	c0.172,0,0.337-0.096,0.417-0.262c0.535-1.12,1.055-2.247,1.562-3.383c0.104-0.234-0.001-0.506-0.234-0.611
	C440.343,352.033,440.07,352.136,439.965,352.369z M435.498,361.507c-0.581,1.089-1.175,2.17-1.782,3.242
	c-0.125,0.222-0.047,0.503,0.175,0.63c0.072,0.041,0.15,0.06,0.227,0.06c0.161,0,0.317-0.084,0.402-0.234
	c0.611-1.08,1.209-2.166,1.793-3.262c0.12-0.225,0.034-0.505-0.19-0.625C435.898,361.198,435.619,361.282,435.498,361.507z
	 M443.781,342.934c-0.423,1.162-0.859,2.316-1.311,3.463c-0.094,0.237,0.023,0.506,0.26,0.599c0.056,0.023,0.113,0.032,0.17,0.032
	c0.184,0,0.358-0.111,0.429-0.292c0.456-1.156,0.896-2.318,1.32-3.487c0.088-0.24-0.036-0.504-0.276-0.592
	C444.132,342.573,443.867,342.695,443.781,342.934z M430.404,370.305c-0.655,1.045-1.322,2.081-2.003,3.108
	c-0.141,0.213-0.082,0.5,0.13,0.64c0.078,0.051,0.167,0.077,0.255,0.077c0.15,0,0.296-0.073,0.385-0.206
	c0.685-1.035,1.357-2.077,2.016-3.128c0.135-0.216,0.07-0.501-0.146-0.637S430.539,370.089,430.404,370.305z M424.711,378.723
	c-0.725,0.996-1.464,1.982-2.213,2.959c-0.155,0.203-0.117,0.492,0.085,0.648c0.084,0.065,0.183,0.096,0.281,0.096
	c0.138,0,0.275-0.062,0.366-0.18c0.755-0.984,1.497-1.976,2.228-2.979c0.15-0.206,0.105-0.494-0.102-0.645
	C425.151,378.472,424.861,378.517,424.711,378.723z M445.349,246.944c0.049,0,0.099-0.008,0.148-0.024
	c0.242-0.082,0.372-0.344,0.29-0.585c-0.397-1.176-0.808-2.344-1.233-3.506c-0.088-0.239-0.352-0.362-0.593-0.275
	c-0.24,0.088-0.363,0.353-0.275,0.592c0.423,1.154,0.831,2.316,1.226,3.484C444.977,246.823,445.156,246.944,445.349,246.944z
	 M427.155,210.722c0.091,0,0.182-0.027,0.262-0.082c0.21-0.145,0.262-0.432,0.117-0.642c-0.703-1.019-1.42-2.027-2.149-3.026
	c-0.151-0.206-0.441-0.251-0.646-0.101c-0.206,0.15-0.251,0.439-0.101,0.645c0.725,0.993,1.437,1.995,2.137,3.006
	C426.865,210.653,427.009,210.722,427.155,210.722z M432.645,219.283c0.08,0,0.161-0.021,0.235-0.065
	c0.219-0.13,0.292-0.414,0.161-0.633c-0.631-1.064-1.275-2.119-1.932-3.165c-0.137-0.216-0.421-0.28-0.637-0.146
	c-0.216,0.135-0.281,0.42-0.146,0.636c0.653,1.04,1.293,2.089,1.921,3.146C432.334,219.202,432.488,219.283,432.645,219.283z
	 M437.524,228.2c0.07,0,0.141-0.016,0.207-0.049c0.228-0.114,0.319-0.392,0.205-0.62c-0.555-1.105-1.124-2.202-1.706-3.29
	c-0.122-0.226-0.404-0.309-0.625-0.189c-0.226,0.12-0.31,0.4-0.19,0.625c0.578,1.081,1.144,2.172,1.696,3.269
	C437.193,228.107,437.355,228.2,437.524,228.2z M448.9,327.57c0.036,0.009,0.072,0.013,0.107,0.013c0.209,0,0.399-0.142,0.449-0.354
	c0.287-1.204,0.558-2.413,0.815-3.627c0.052-0.25-0.106-0.494-0.356-0.548c-0.251-0.047-0.494,0.107-0.547,0.356
	c-0.255,1.207-0.525,2.407-0.81,3.603C448.499,327.262,448.652,327.511,448.9,327.57z M453.393,296.884
	c0.031-1.234,0.046-2.472,0.046-3.715v-0.29c0-0.255-0.207-0.462-0.462-0.462c-0.255,0-0.462,0.207-0.462,0.462v0.29
	c0,1.234-0.015,2.465-0.046,3.692c-0.006,0.255,0.196,0.467,0.45,0.474c0.004,0,0.008,0,0.012,0
	C453.181,297.335,453.387,297.135,453.393,296.884z M448.265,256.702c0.038,0,0.078-0.005,0.116-0.015
	c0.247-0.065,0.395-0.317,0.33-0.563c-0.313-1.2-0.64-2.395-0.983-3.584c-0.071-0.245-0.329-0.386-0.572-0.316
	c-0.245,0.071-0.386,0.326-0.316,0.572c0.341,1.181,0.667,2.368,0.978,3.56C447.873,256.564,448.06,256.702,448.265,256.702z
	 M421.079,202.56c0.101,0,0.203-0.033,0.289-0.101c0.198-0.159,0.232-0.45,0.072-0.649c-0.773-0.967-1.558-1.924-2.355-2.871
	c-0.165-0.195-0.456-0.219-0.651-0.055c-0.195,0.164-0.22,0.456-0.056,0.651c0.793,0.94,1.573,1.891,2.34,2.852
	C420.81,202.5,420.944,202.56,421.079,202.56z M450.571,266.633c0.251-0.047,0.416-0.288,0.369-0.539
	c-0.229-1.22-0.472-2.434-0.73-3.644c-0.054-0.249-0.297-0.411-0.548-0.355c-0.249,0.053-0.409,0.298-0.355,0.548
	c0.256,1.201,0.499,2.409,0.726,3.621c0.042,0.222,0.235,0.377,0.453,0.377C450.514,266.641,450.543,266.638,450.571,266.633z
	 M447.492,332.946c-0.249-0.076-0.501,0.071-0.571,0.317c-0.339,1.185-0.693,2.364-1.061,3.537
	c-0.077,0.243,0.059,0.502,0.302,0.578c0.046,0.015,0.092,0.022,0.138,0.022c0.197,0,0.379-0.126,0.44-0.324
	c0.372-1.181,0.727-2.367,1.068-3.559C447.879,333.271,447.738,333.016,447.492,332.946z M452.327,307.5
	c0.235,0,0.436-0.179,0.459-0.418c0.116-1.231,0.217-2.465,0.302-3.704c0.017-0.254-0.175-0.475-0.429-0.493
	c-0.255-0.012-0.474,0.175-0.492,0.429c-0.085,1.231-0.184,2.457-0.3,3.68c-0.023,0.254,0.162,0.479,0.417,0.503
	C452.297,307.5,452.312,307.5,452.327,307.5z M452.147,282.733c0.087,1.224,0.16,2.453,0.216,3.686
	c0.011,0.247,0.215,0.441,0.461,0.441c0.006,0,0.014,0,0.021,0c0.255-0.012,0.452-0.227,0.44-0.482
	c-0.056-1.241-0.128-2.478-0.216-3.711c-0.019-0.255-0.257-0.45-0.493-0.427C452.321,282.258,452.129,282.479,452.147,282.733z
	 M451.471,272.117c-0.253,0.036-0.429,0.269-0.392,0.522c0.171,1.216,0.328,2.437,0.47,3.663c0.028,0.235,0.227,0.409,0.458,0.409
	c0.018,0,0.036-0.001,0.054-0.003c0.253-0.029,0.435-0.258,0.406-0.512c-0.143-1.233-0.3-2.462-0.474-3.685
	C451.957,272.256,451.727,272.077,451.471,272.117z M450.942,317.593c0.026,0.004,0.051,0.006,0.077,0.006
	c0.221,0,0.417-0.161,0.455-0.386c0.203-1.221,0.389-2.445,0.56-3.674c0.035-0.253-0.141-0.486-0.393-0.521
	c-0.245-0.029-0.487,0.141-0.521,0.393c-0.17,1.222-0.355,2.439-0.556,3.651C450.521,317.313,450.69,317.551,450.942,317.593z
	 M195.543,199.728c0.791-0.943,1.595-1.877,2.409-2.8c0.169-0.191,0.151-0.483-0.041-0.652c-0.19-0.168-0.482-0.15-0.652,0.041
	c-0.819,0.929-1.627,1.867-2.424,2.817c-0.164,0.195-0.138,0.487,0.057,0.651c0.087,0.072,0.192,0.108,0.296,0.108
	C195.321,199.893,195.451,199.837,195.543,199.728z M167.879,249.1c-0.245-0.078-0.503,0.059-0.579,0.303
	c-0.37,1.181-0.724,2.368-1.065,3.561c-0.07,0.245,0.072,0.501,0.318,0.571c0.042,0.012,0.085,0.018,0.127,0.018
	c0.201,0,0.386-0.132,0.444-0.335c0.338-1.185,0.69-2.365,1.057-3.538C168.258,249.435,168.122,249.176,167.879,249.1z
	 M342.293,434.343c-1.191,0.297-2.39,0.579-3.594,0.846c-0.249,0.055-0.406,0.302-0.351,0.551c0.048,0.216,0.239,0.362,0.451,0.362
	c0.033,0,0.067-0.004,0.1-0.011c1.211-0.269,2.417-0.553,3.617-0.851c0.247-0.061,0.398-0.312,0.336-0.56
	C342.791,434.431,342.541,434.282,342.293,434.343z M176.909,358.264c-0.114-0.229-0.391-0.32-0.62-0.207
	c-0.228,0.115-0.32,0.392-0.206,0.62c0.448,0.895,0.912,1.781,1.378,2.665h1.04C177.96,360.323,177.428,359.297,176.909,358.264z
	 M397.141,408.563c0.201-0.157,0.237-0.447,0.079-0.648c-0.158-0.204-0.449-0.237-0.648-0.079c-0.444,0.347-0.897,0.682-1.344,1.024
	v1.16C395.868,409.537,396.51,409.057,397.141,408.563z M166.317,333.658c0.058,0.203,0.243,0.335,0.443,0.335
	c0.042,0,0.085-0.005,0.128-0.018c0.245-0.07,0.387-0.326,0.316-0.571c-0.339-1.182-0.664-2.369-0.974-3.563
	c-0.064-0.247-0.316-0.393-0.563-0.331c-0.247,0.065-0.395,0.317-0.331,0.564C165.649,331.275,165.975,332.47,166.317,333.658z
	 M161.467,303.956c0.011,0,0.022,0,0.032-0.001c0.254-0.018,0.446-0.239,0.428-0.493c-0.085-1.225-0.156-2.454-0.211-3.687
	c-0.012-0.255-0.231-0.462-0.482-0.441c-0.255,0.011-0.452,0.227-0.441,0.482c0.055,1.241,0.127,2.478,0.212,3.709
	C161.023,303.77,161.226,303.956,161.467,303.956z M162.529,314.084c0.021,0,0.043-0.002,0.065-0.004
	c0.253-0.035,0.429-0.269,0.393-0.521c-0.17-1.216-0.326-2.437-0.467-3.663c-0.029-0.253-0.258-0.437-0.511-0.406
	c-0.253,0.029-0.435,0.258-0.406,0.511c0.142,1.233,0.298,2.462,0.47,3.686C162.105,313.917,162.302,314.084,162.529,314.084z
	 M164.296,324.113c0.032,0,0.064-0.004,0.096-0.01c0.249-0.053,0.409-0.299,0.356-0.547c-0.256-1.202-0.496-2.41-0.722-3.622
	c-0.047-0.251-0.288-0.416-0.538-0.369c-0.251,0.046-0.416,0.288-0.37,0.538c0.227,1.219,0.47,2.434,0.726,3.644
	C163.891,323.964,164.082,324.113,164.296,324.113z M165.15,258.911c-0.247-0.061-0.497,0.094-0.556,0.343
	c-0.285,1.203-0.556,2.412-0.812,3.626c-0.052,0.249,0.107,0.495,0.357,0.547c0.032,0.007,0.064,0.01,0.096,0.01
	c0.214,0,0.406-0.149,0.451-0.367c0.254-1.207,0.523-2.408,0.806-3.604C165.552,259.219,165.398,258.97,165.15,258.911z
	 M163.117,268.89c-0.255-0.048-0.49,0.129-0.53,0.38c-0.201,1.22-0.385,2.445-0.556,3.674c-0.035,0.253,0.141,0.486,0.394,0.52
	c0.021,0.003,0.043,0.005,0.064,0.005c0.227,0,0.425-0.167,0.457-0.399c0.169-1.222,0.353-2.439,0.552-3.651
	C163.539,269.168,163.369,268.931,163.117,268.89z M234.088,420.05c0.16,0,0.315-0.083,0.4-0.231c0.128-0.22,0.052-0.503-0.168-0.63
	c-1.014-0.586-2.019-1.187-3.017-1.797v1.075c0.847,0.513,1.696,1.024,2.554,1.521C233.93,420.03,234.009,420.05,234.088,420.05z
	 M348.526,432.643c-0.244,0.073-0.383,0.329-0.311,0.575c0.06,0.2,0.244,0.33,0.443,0.33c0.043,0,0.088-0.006,0.132-0.019
	c1.19-0.353,2.372-0.721,3.548-1.104c0.243-0.079,0.375-0.34,0.297-0.582c-0.079-0.243-0.34-0.374-0.582-0.297
	C350.883,431.927,349.708,432.292,348.526,432.643z M385.538,416.678c0.086,0,0.171-0.023,0.249-0.072
	c1.043-0.666,2.076-1.346,3.101-2.038c0.211-0.142,0.267-0.429,0.124-0.641c-0.143-0.211-0.43-0.267-0.641-0.124
	c-1.017,0.687-2.044,1.363-3.08,2.024c-0.216,0.138-0.279,0.423-0.142,0.638C385.237,416.603,385.387,416.678,385.538,416.678z
	 M298.289,439.309c1.233,0.072,2.47,0.131,3.712,0.172c0.005,0,0.01,0,0.016,0c0.248,0,0.453-0.197,0.461-0.446
	c0.008-0.254-0.191-0.468-0.446-0.477c-1.233-0.041-2.463-0.098-3.688-0.17c-0.248-0.023-0.473,0.18-0.488,0.434
	C297.841,439.075,298.035,439.294,298.289,439.309z M418.449,386.722c-0.792,0.942-1.595,1.875-2.412,2.798
	c-0.17,0.19-0.152,0.483,0.04,0.651c0.087,0.079,0.197,0.116,0.306,0.116c0.127,0,0.254-0.052,0.345-0.156
	c0.822-0.928,1.63-1.866,2.428-2.816c0.164-0.195,0.139-0.486-0.057-0.65C418.904,386.501,418.613,386.527,418.449,386.722z
	 M376.787,421.853c0.075,0,0.151-0.018,0.221-0.056c1.086-0.593,2.164-1.198,3.232-1.817c0.221-0.127,0.297-0.41,0.169-0.63
	c-0.128-0.221-0.413-0.298-0.63-0.169c-1.063,0.615-2.134,1.217-3.213,1.804c-0.224,0.123-0.307,0.403-0.185,0.627
	C376.465,421.766,376.624,421.853,376.787,421.853z M367.701,426.401c0.064,0,0.13-0.013,0.192-0.041
	c1.125-0.514,2.241-1.043,3.35-1.585c0.229-0.112,0.324-0.389,0.212-0.618c-0.113-0.23-0.391-0.322-0.618-0.212
	c-1.101,0.538-2.211,1.063-3.328,1.574c-0.232,0.106-0.334,0.381-0.228,0.612C367.358,426.301,367.526,426.401,367.701,426.401z
	 M358.311,430.306c0.054,0,0.109-0.009,0.162-0.03c1.161-0.436,2.315-0.886,3.462-1.349c0.236-0.096,0.351-0.365,0.255-0.602
	c-0.096-0.236-0.367-0.349-0.602-0.255c-1.14,0.462-2.287,0.908-3.441,1.342c-0.239,0.089-0.36,0.355-0.27,0.594
	C357.949,430.192,358.125,430.306,358.311,430.306z M172.088,348.809c-0.235,0.098-0.347,0.369-0.248,0.604
	c0.475,1.141,0.964,2.275,1.467,3.401c0.077,0.171,0.245,0.273,0.422,0.273c0.063,0,0.127-0.013,0.188-0.04
	c0.233-0.105,0.337-0.378,0.233-0.611c-0.5-1.119-0.986-2.246-1.458-3.379C172.595,348.822,172.324,348.715,172.088,348.809z
	 M189.288,207.732c0.725-0.997,1.462-1.984,2.211-2.962c0.155-0.202,0.117-0.492-0.086-0.648c-0.203-0.155-0.492-0.116-0.648,0.086
	c-0.754,0.984-1.495,1.977-2.224,2.981c-0.15,0.206-0.104,0.495,0.102,0.645c0.082,0.06,0.177,0.088,0.271,0.088
	C189.057,207.923,189.198,207.857,189.288,207.732z M183.211,216.373c0.154,0,0.304-0.077,0.392-0.217
	c0.654-1.046,1.32-2.082,2-3.11c0.141-0.213,0.083-0.499-0.13-0.64c-0.213-0.142-0.5-0.083-0.64,0.13
	c-0.684,1.035-1.355,2.078-2.013,3.13c-0.135,0.216-0.07,0.501,0.147,0.636C183.043,216.351,183.128,216.373,183.211,216.373z
	 M209.632,185.123c0.914-0.824,1.837-1.636,2.771-2.437c0.193-0.166,0.216-0.457,0.05-0.651c-0.165-0.193-0.457-0.215-0.651-0.05
	c-0.939,0.805-1.869,1.623-2.788,2.452c-0.189,0.17-0.204,0.463-0.033,0.652c0.091,0.101,0.216,0.152,0.343,0.152
	C209.433,185.242,209.544,185.203,209.632,185.123z M178.11,225.205c0.165,0,0.325-0.089,0.408-0.245
	c0.58-1.09,1.173-2.171,1.779-3.244c0.126-0.222,0.047-0.504-0.175-0.63c-0.222-0.124-0.504-0.047-0.629,0.175
	c-0.611,1.08-1.207,2.168-1.79,3.264c-0.12,0.225-0.034,0.505,0.191,0.625C177.963,225.188,178.037,225.205,178.11,225.205z
	 M202.335,192.18c0.855-0.886,1.72-1.76,2.596-2.624c0.182-0.179,0.184-0.471,0.004-0.653c-0.179-0.182-0.472-0.183-0.653-0.004
	c-0.882,0.869-1.753,1.75-2.613,2.641c-0.177,0.183-0.172,0.476,0.012,0.653c0.09,0.087,0.205,0.129,0.321,0.129
	C202.124,192.321,202.244,192.273,202.335,192.18z M173.638,234.377c0.177,0,0.346-0.102,0.422-0.274
	c0.502-1.128,1.018-2.249,1.548-3.362c0.11-0.23,0.012-0.506-0.219-0.616c-0.231-0.108-0.505-0.011-0.616,0.219
	c-0.533,1.121-1.052,2.249-1.558,3.384c-0.103,0.233,0.001,0.506,0.234,0.61C173.512,234.364,173.576,234.377,173.638,234.377z
	 M288.119,438.354c1.226,0.158,2.456,0.301,3.691,0.428c0.016,0.002,0.032,0.003,0.048,0.003c0.234,0,0.434-0.177,0.459-0.414
	c0.026-0.254-0.158-0.481-0.412-0.507c-1.227-0.127-2.45-0.269-3.668-0.427c-0.248-0.031-0.484,0.147-0.517,0.399
	C287.687,438.089,287.866,438.321,288.119,438.354z M171.301,239.477c-0.237-0.092-0.505,0.023-0.598,0.261
	c-0.453,1.155-0.892,2.318-1.317,3.488c-0.087,0.239,0.037,0.505,0.277,0.592c0.052,0.018,0.105,0.027,0.157,0.027
	c0.189,0,0.366-0.116,0.434-0.304c0.422-1.162,0.857-2.317,1.308-3.465C171.655,239.838,171.538,239.57,171.301,239.477z
	 M168.542,339.281c-0.242,0.081-0.372,0.343-0.291,0.584c0.395,1.176,0.805,2.346,1.23,3.507c0.068,0.187,0.245,0.303,0.434,0.303
	c0.053,0,0.106-0.009,0.158-0.028c0.24-0.088,0.363-0.353,0.275-0.593c-0.422-1.154-0.829-2.315-1.222-3.484
	C169.045,339.329,168.784,339.2,168.542,339.281z M160.688,289.6c-0.028,1.186-0.043,2.376-0.043,3.569v0.146
	c0,0.255,0.207,0.462,0.462,0.462c0.255,0,0.462-0.207,0.462-0.462v-0.146c0-1.185,0.014-2.368,0.043-3.546
	c0.006-0.255-0.196-0.467-0.451-0.473C160.902,289.135,160.695,289.345,160.688,289.6z M275.595,150.63
	c-0.056-0.249-0.301-0.405-0.551-0.35c-1.211,0.27-2.417,0.555-3.616,0.855c-0.248,0.062-0.398,0.313-0.336,0.56
	c0.052,0.21,0.24,0.35,0.447,0.35c0.037,0,0.075-0.004,0.112-0.014c1.192-0.298,2.39-0.581,3.594-0.85
	C275.494,151.126,275.651,150.879,275.595,150.63z M261.753,154.86c0.047,0,0.096-0.007,0.143-0.023
	c1.168-0.381,2.343-0.748,3.524-1.1c0.244-0.073,0.384-0.33,0.311-0.574c-0.073-0.244-0.33-0.384-0.574-0.311
	c-1.189,0.354-2.372,0.723-3.548,1.107c-0.242,0.079-0.375,0.34-0.296,0.582C261.377,154.737,261.558,154.86,261.753,154.86z
	 M252.187,158.357c0.058,0,0.117-0.011,0.174-0.034c1.139-0.463,2.285-0.911,3.439-1.345c0.238-0.09,0.359-0.356,0.269-0.595
	c-0.09-0.239-0.355-0.359-0.595-0.269c-1.161,0.437-2.315,0.888-3.461,1.353c-0.236,0.096-0.35,0.365-0.254,0.602
	C251.832,158.248,252.005,158.357,252.187,158.357z M161.447,283.6c0.241,0,0.444-0.187,0.46-0.431
	c0.083-1.231,0.182-2.458,0.297-3.681c0.023-0.254-0.163-0.479-0.417-0.503c-0.251-0.024-0.479,0.163-0.503,0.417
	c-0.115,1.23-0.214,2.465-0.299,3.704c-0.017,0.254,0.175,0.474,0.43,0.492C161.426,283.599,161.437,283.6,161.447,283.6z
	 M225.593,172.617c1.017-0.689,2.044-1.365,3.079-2.028c0.215-0.138,0.277-0.423,0.14-0.638c-0.137-0.215-0.424-0.279-0.638-0.14
	c-1.042,0.667-2.075,1.347-3.098,2.041c-0.211,0.143-0.267,0.43-0.124,0.641c0.089,0.132,0.235,0.203,0.383,0.203
	C225.424,172.696,225.514,172.67,225.593,172.617z M217.397,178.591c0.967-0.758,1.944-1.504,2.932-2.238
	c0.205-0.152,0.247-0.441,0.095-0.646c-0.152-0.205-0.441-0.248-0.646-0.095c-0.994,0.739-1.977,1.49-2.951,2.252
	c-0.201,0.157-0.236,0.447-0.079,0.648c0.091,0.116,0.227,0.177,0.364,0.177C217.212,178.69,217.312,178.658,217.397,178.591z
	 M234.181,167.23c1.062-0.616,2.132-1.218,3.21-1.808c0.224-0.122,0.306-0.403,0.184-0.626c-0.122-0.224-0.403-0.307-0.626-0.183
	c-1.085,0.593-2.162,1.2-3.231,1.819c-0.221,0.128-0.296,0.41-0.168,0.631c0.086,0.147,0.241,0.23,0.4,0.23
	C234.028,167.292,234.108,167.273,234.181,167.23z M242.915,162.504c0.068,0,0.138-0.015,0.203-0.047
	c1.101-0.54,2.21-1.066,3.326-1.578c0.232-0.106,0.334-0.381,0.227-0.612c-0.106-0.232-0.38-0.332-0.612-0.227
	c-1.124,0.516-2.24,1.045-3.348,1.588c-0.229,0.112-0.323,0.389-0.212,0.618C242.58,162.409,242.744,162.504,242.915,162.504z
	 M322.129,147.54c-0.249-0.019-0.48,0.158-0.506,0.413c-0.026,0.253,0.158,0.48,0.412,0.506c1.227,0.126,2.45,0.266,3.668,0.423
	c0.02,0.002,0.04,0.004,0.06,0.004c0.228,0,0.427-0.17,0.457-0.403c0.032-0.253-0.146-0.484-0.4-0.517
	C324.595,147.809,323.365,147.667,322.129,147.54z M332.249,148.935c-0.245-0.045-0.49,0.125-0.533,0.376
	c-0.044,0.251,0.124,0.49,0.376,0.534c1.215,0.211,2.425,0.437,3.63,0.678c0.03,0.006,0.06,0.009,0.091,0.009
	c0.216,0,0.408-0.151,0.452-0.371c0.051-0.25-0.112-0.493-0.362-0.543C334.691,149.375,333.473,149.147,332.249,148.935z
	 M342.248,151.034c-0.253-0.061-0.498,0.091-0.559,0.338c-0.061,0.247,0.09,0.498,0.337,0.559c1.197,0.295,2.388,0.606,3.573,0.931
	c0.042,0.011,0.082,0.016,0.123,0.016c0.203,0,0.389-0.134,0.446-0.34c0.068-0.246-0.078-0.5-0.323-0.568
	C344.65,151.643,343.452,151.331,342.248,151.034z M311.939,146.853c-0.005,0-0.011,0-0.015,0c-0.248,0-0.454,0.197-0.462,0.446
	c-0.008,0.255,0.192,0.469,0.446,0.477c1.234,0.041,2.464,0.096,3.689,0.167c0.009,0,0.018,0.001,0.027,0.001
	c0.244,0,0.446-0.189,0.461-0.435c0.014-0.254-0.179-0.473-0.434-0.487C314.417,146.949,313.18,146.893,311.939,146.853z
	 M352.075,153.829c-0.241-0.078-0.502,0.055-0.581,0.297c-0.078,0.243,0.054,0.503,0.298,0.581c1.176,0.381,2.347,0.775,3.511,1.184
	c0.05,0.018,0.103,0.026,0.153,0.026c0.19,0,0.369-0.119,0.436-0.309c0.085-0.24-0.042-0.504-0.282-0.588
	C354.438,154.609,353.26,154.212,352.075,153.829z M361.706,157.32c-0.234-0.095-0.506,0.019-0.601,0.256
	c-0.096,0.237,0.019,0.506,0.256,0.601c1.146,0.462,2.285,0.937,3.416,1.428c0.06,0.026,0.123,0.038,0.184,0.038
	c0.179,0,0.348-0.104,0.424-0.278c0.101-0.234-0.006-0.506-0.24-0.607C364.006,158.263,362.859,157.784,361.706,157.32z
	 M281.419,149.008c-0.251,0.044-0.419,0.284-0.374,0.535c0.039,0.224,0.234,0.381,0.454,0.381c0.027,0,0.054-0.002,0.081-0.007
	c1.209-0.213,2.424-0.412,3.644-0.595c0.252-0.038,0.426-0.273,0.388-0.525c-0.038-0.252-0.269-0.421-0.525-0.388
	C283.859,148.593,282.637,148.793,281.419,149.008z M225.703,413.795c-1.021-0.691-2.034-1.393-3.037-2.109
	c-0.207-0.147-0.495-0.098-0.644,0.108c-0.148,0.208-0.1,0.496,0.108,0.644c1.009,0.719,2.028,1.427,3.055,2.121
	c0.079,0.054,0.17,0.079,0.258,0.079c0.148,0,0.294-0.071,0.383-0.203C225.97,414.224,225.915,413.938,225.703,413.795z
	 M214.606,405.504c-0.196-0.163-0.488-0.133-0.65,0.062c-0.162,0.197-0.134,0.488,0.063,0.65c0.956,0.788,1.922,1.565,2.899,2.328
	c0.085,0.067,0.185,0.098,0.284,0.098c0.138,0,0.273-0.061,0.364-0.178c0.157-0.2,0.121-0.491-0.079-0.648
	C216.517,407.058,215.556,406.287,214.606,405.504z M301.726,146.868c-0.255,0.009-0.455,0.223-0.445,0.477
	c0.009,0.249,0.214,0.446,0.461,0.446c0.006,0,0.011,0,0.017,0c1.226-0.043,2.455-0.072,3.688-0.086
	c0.255-0.003,0.46-0.212,0.457-0.467c-0.003-0.255-0.199-0.419-0.467-0.457C304.195,146.795,302.959,146.823,301.726,146.868z
	 M291.535,147.584c-0.254,0.027-0.438,0.254-0.411,0.507c0.025,0.237,0.225,0.414,0.459,0.414c0.016,0,0.032-0.001,0.049-0.003
	c1.221-0.129,2.446-0.242,3.677-0.34c0.254-0.02,0.444-0.243,0.424-0.497c-0.021-0.254-0.237-0.442-0.497-0.423
	C293.997,147.341,292.764,147.455,291.535,147.584z M407.299,187.585c0.123,0,0.244-0.049,0.335-0.145
	c0.175-0.185,0.167-0.478-0.018-0.653c-0.9-0.85-1.812-1.691-2.733-2.519c-0.187-0.17-0.482-0.155-0.652,0.034
	c-0.17,0.19-0.155,0.482,0.035,0.652c0.915,0.823,1.82,1.658,2.715,2.503C407.071,187.543,407.186,187.585,407.299,187.585z
	 M411.649,394.263c-0.855,0.885-1.722,1.759-2.599,2.623c-0.182,0.179-0.184,0.472-0.005,0.653c0.09,0.092,0.21,0.138,0.329,0.138
	c0.117,0,0.234-0.044,0.324-0.133c0.883-0.869,1.755-1.749,2.615-2.639c0.178-0.184,0.172-0.476-0.011-0.653
	C412.118,394.075,411.825,394.08,411.649,394.263z M371.064,161.477c-0.226-0.11-0.505-0.017-0.617,0.213
	c-0.112,0.229-0.016,0.506,0.213,0.617c1.11,0.541,2.212,1.095,3.306,1.663c0.069,0.035,0.141,0.052,0.213,0.052
	c0.167,0,0.327-0.091,0.409-0.249c0.118-0.226,0.03-0.505-0.197-0.623C373.291,162.579,372.181,162.021,371.064,161.477z
	 M278.039,436.693c1.212,0.243,2.429,0.473,3.652,0.685c0.027,0.005,0.054,0.007,0.08,0.007c0.22,0,0.415-0.158,0.454-0.382
	c0.044-0.251-0.124-0.491-0.376-0.534c-1.215-0.213-2.425-0.44-3.629-0.682c-0.25-0.052-0.494,0.112-0.544,0.362
	S277.789,436.643,278.039,436.693z M414.451,194.835c0.112,0,0.224-0.041,0.313-0.122c0.188-0.173,0.199-0.465,0.026-0.653
	c-0.839-0.91-1.688-1.811-2.55-2.701c-0.178-0.183-0.47-0.188-0.653-0.011c-0.183,0.178-0.188,0.47-0.011,0.653
	c0.856,0.884,1.7,1.779,2.535,2.684C414.203,194.785,414.327,194.835,414.451,194.835z M396.403,177.784
	c-0.157,0.201-0.121,0.491,0.08,0.648c0.971,0.758,1.932,1.528,2.883,2.31c0.086,0.071,0.189,0.105,0.293,0.105
	c0.133,0,0.265-0.057,0.357-0.169c0.161-0.197,0.134-0.488-0.064-0.65c-0.957-0.787-1.925-1.562-2.901-2.324
	C396.849,177.548,396.56,177.581,396.403,177.784z M380.102,166.278c-0.22-0.126-0.503-0.051-0.63,0.169
	c-0.128,0.221-0.052,0.503,0.169,0.631c1.068,0.616,2.129,1.246,3.179,1.889c0.075,0.046,0.158,0.068,0.241,0.068
	c0.155,0,0.307-0.078,0.394-0.221c0.133-0.217,0.064-0.502-0.153-0.635C382.243,167.532,381.177,166.898,380.102,166.278z
	 M388.137,171.821c-0.142,0.211-0.086,0.498,0.125,0.641c1.022,0.689,2.036,1.391,3.038,2.105c0.081,0.058,0.175,0.086,0.268,0.086
	c0.144,0,0.286-0.068,0.376-0.194c0.148-0.208,0.099-0.496-0.108-0.644c-1.01-0.719-2.029-1.425-3.058-2.118
	C388.567,171.556,388.281,171.609,388.137,171.821z M404.346,401.312c-0.914,0.823-1.839,1.635-2.774,2.435
	c-0.194,0.166-0.216,0.457-0.05,0.651c0.091,0.107,0.221,0.161,0.351,0.161c0.106,0,0.213-0.036,0.3-0.111
	c0.941-0.805,1.87-1.623,2.79-2.45c0.19-0.171,0.206-0.463,0.035-0.652C404.826,401.156,404.533,401.141,404.346,401.312z
	 M268.099,434.33c1.193,0.328,2.391,0.641,3.595,0.94c0.037,0.009,0.074,0.013,0.111,0.013c0.207,0,0.395-0.141,0.448-0.351
	c0.061-0.247-0.09-0.498-0.337-0.559c-1.196-0.297-2.387-0.608-3.572-0.934c-0.245-0.066-0.5,0.077-0.568,0.323
	C267.709,434.008,267.854,434.263,268.099,434.33z M193.275,383.84c-0.159-0.2-0.45-0.233-0.649-0.073
	c-0.199,0.159-0.232,0.449-0.073,0.648c0.772,0.969,1.557,1.926,2.353,2.873c0.091,0.109,0.222,0.165,0.354,0.165
	c0.105,0,0.21-0.035,0.297-0.108c0.195-0.164,0.221-0.456,0.056-0.65C194.822,385.753,194.042,384.801,193.275,383.84z
	 M199.877,391.546c-0.173-0.188-0.466-0.2-0.653-0.028c-0.188,0.172-0.201,0.464-0.028,0.652c0.838,0.913,1.687,1.815,2.547,2.705
	c0.091,0.094,0.211,0.141,0.332,0.141c0.115,0,0.231-0.043,0.321-0.13c0.183-0.177,0.188-0.469,0.011-0.653
	C201.552,393.348,200.708,392.454,199.877,391.546z M258.339,431.268c1.171,0.413,2.349,0.812,3.532,1.195
	c0.047,0.015,0.096,0.023,0.142,0.023c0.195,0,0.376-0.124,0.439-0.319c0.079-0.243-0.054-0.503-0.297-0.582
	c-1.177-0.382-2.346-0.776-3.51-1.188c-0.241-0.087-0.504,0.041-0.589,0.281C257.972,430.919,258.098,431.184,258.339,431.268z
	 M239.564,423.121c1.101,0.573,2.209,1.132,3.325,1.678c0.065,0.032,0.134,0.047,0.202,0.047c0.171,0,0.335-0.096,0.415-0.259
	c0.112-0.229,0.017-0.506-0.212-0.618c-1.11-0.542-2.211-1.098-3.305-1.667c-0.227-0.118-0.506-0.031-0.623,0.197
	C239.25,422.724,239.338,423.004,239.564,423.121z M181.763,367.157c-0.129-0.218-0.412-0.291-0.633-0.162
	c-0.219,0.131-0.292,0.414-0.162,0.633c0.63,1.065,1.274,2.12,1.93,3.167c0.088,0.14,0.238,0.216,0.392,0.216
	c0.084,0,0.169-0.023,0.245-0.07c0.216-0.135,0.281-0.42,0.146-0.637C183.029,369.265,182.39,368.215,181.763,367.157z
	 M248.806,427.525c1.138,0.493,2.284,0.973,3.437,1.439c0.057,0.023,0.115,0.033,0.173,0.033c0.183,0,0.355-0.109,0.428-0.289
	c0.096-0.236-0.019-0.506-0.255-0.602c-1.146-0.463-2.285-0.94-3.416-1.43c-0.233-0.102-0.505,0.006-0.607,0.24
	C248.464,427.151,248.572,427.423,248.806,427.525z M206.997,398.779c-0.185-0.173-0.477-0.167-0.652,0.018
	c-0.176,0.185-0.168,0.477,0.018,0.653c0.899,0.852,1.809,1.692,2.729,2.522c0.088,0.08,0.199,0.119,0.309,0.119
	c0.126,0,0.252-0.051,0.343-0.152c0.17-0.189,0.156-0.482-0.034-0.652C208.795,400.462,207.891,399.625,206.997,398.779z
	 M187.227,375.697c-0.145-0.21-0.433-0.263-0.642-0.118c-0.21,0.145-0.263,0.433-0.118,0.643c0.703,1.019,1.419,2.028,2.146,3.028
	c0.091,0.125,0.231,0.19,0.374,0.19c0.094,0,0.189-0.029,0.271-0.088c0.206-0.151,0.252-0.439,0.101-0.645
	C188.637,377.712,187.926,376.71,187.227,375.697z M319.329,470.439c0.095,0.084,0.198,0.174,0.293,0.258
	c1.694,10.997,2.781,22.016,3.647,33.175c0.016,0.208,0.032,0.416,0.048,0.625c0.36,4.689,0.685,9.401,1,14.149h1.264h9.769V368.55
	c0-0.895,0.072-1.723,0.189-2.442h-2.4h-30.181l3.907,78.482C307.361,454.536,311.852,463.862,319.329,470.439z M337.827,366.108
	c0.117,0.719,0.189,1.547,0.189,2.442v52.558c3.778-18.109,11.246-36.757,11.88-55H337.827z M340.064,518.646
	c1.49-5.347,2.564-10.923,3.222-16.589c0.026-0.227,0.05-0.455,0.075-0.683c0.318-2.895,0.527-5.811,0.617-8.734
	c2.65,2.463,5.2,4.87,7.566,7.153c0.196,0.189,0.385,0.373,0.578,0.56c1.859,1.801,3.607,3.525,5.162,5.111l0.959-0.823l9.835-8.447
	l1.137-0.977l0.015-0.012c-6.89-14.718-17.662-28.636-30.668-38.81c-0.196-0.566-0.373-1.134-0.546-1.702v63.954h0.529H340.064z
	 M349.896,361.342c-0.017-0.475-0.036-0.95-0.064-1.424c-1.661,0.597-3.458,1.07-5.356,1.424H349.896z M324.53,361.342
	c-9.602-1.515-18.399-5.026-22.298-9.841l0.49,9.841H324.53z"></path>
<path id="color_x5F_1" fill="#0984E3" d="M458.414,538.381h-6.703c-3.048-3.271-5.782-6.833-8.113-10.651
	c0.8,0.228,1.606,0.438,2.427,0.609c2.407,0.502,3.436-3.192,1.019-3.696c-2.127-0.444-4.176-1.102-6.189-1.858
	c-1.793-3.585-3.27-7.328-4.387-11.177c2.17,1.342,4.321,2.714,6.424,4.163c2.036,1.403,3.955-1.918,1.935-3.31
	c-3.144-2.166-6.389-4.167-9.654-6.137c-1.329-6.622-1.596-13.445-0.86-20.158c1.827,1.642,3.667,3.27,5.516,4.888
	c1.849,1.619,4.571-1.082,2.711-2.711c-2.542-2.225-5.078-4.456-7.566-6.739c1.032-5.739,2.8-11.345,5.306-16.611
	c5.651,3.607,10.582,8.256,14.578,13.6c-1.901,2.616-3.68,5.317-5.293,8.13c-1.229,2.144,2.082,4.077,3.31,1.935
	c1.327-2.314,2.784-4.537,4.312-6.71c2.91,4.542,5.163,9.501,6.65,14.701c-3.011,3.465-5.802,7.125-8.621,10.759
	c-1.494,1.926,1.2,4.658,2.711,2.711c2.308-2.975,4.596-5.97,7.002-8.86c1.116,5.924,1.07,12.068,0.07,18.092
	c-1.701,1.13-3.389,2.282-5.046,3.478c-1.982,1.43-0.071,4.757,1.935,3.31c0.644-0.465,1.296-0.917,1.948-1.37
	C462.578,529.511,460.741,534.106,458.414,538.381z M487.081,531.394c-0.615,0.147-1.229,0.293-1.841,0.451
	c-1.907,0.492-2.36-2.529-0.475-3.015c1.576-0.407,3.161-0.772,4.75-1.117c2.487-4.178,4.302-8.721,5.192-13.438
	c-2.621,1.446-5.186,3.004-7.76,4.541c-1.685,1.006-2.891-1.801-1.224-2.796c3.144-1.878,6.275-3.783,9.512-5.48
	c0.404-4.287,0.171-8.618-0.671-12.83c-1.763,1.168-3.488,2.395-5.143,3.726c-1.532,1.232-3.427-1.161-1.894-2.394
	c2.011-1.619,4.114-3.106,6.282-4.495c-1.414-5.122-3.724-9.998-6.869-14.311c-3.384,3.179-6.32,6.824-8.749,10.781
	c1.183,2.414,2.417,4.804,3.658,7.19c0.908,1.747-1.893,2.961-2.796,1.225c-0.902-1.736-1.794-3.477-2.674-5.224
	c-2.492,4.765-4.271,9.902-5.205,15.199c1.85,2.408,3.677,4.832,5.381,7.349c1.095,1.618-1.29,3.525-2.394,1.894
	c-1.14-1.684-2.337-3.325-3.557-4.949c-0.287,3.178-0.277,6.382,0.014,9.56c1.274,1.145,2.603,2.227,4.051,3.172
	c1.647,1.074-0.187,3.516-1.827,2.446c-0.559-0.365-1.096-0.755-1.623-1.155c0.648,3.65,1.698,7.222,3.092,10.656h6.536
	C483.131,536.263,485.234,533.921,487.081,531.394z M109.102,369.969c-9.643-24.268-14.95-50.712-14.95-78.374
	c0-40.531,11.39-78.45,31.13-110.733c-0.22-0.122-0.431-0.253-0.633-0.393c-20.272,33.136-31.119,71.295-31.119,111.126
	c0,27.349,5.121,53.907,14.884,78.597C108.637,370.109,108.866,370.035,109.102,369.969z M307.042,78.706
	c83.293,0,155.554,48.089,190.511,117.954c0.224-0.109,0.458-0.206,0.7-0.296c-10.168-20.366-23.669-39.178-40.234-55.744
	c-40.327-40.327-93.945-62.536-150.976-62.536c-57.031,0-110.649,22.209-150.976,62.536c-7.949,7.949-15.183,16.422-21.693,25.328
	c0.206,0.144,0.402,0.297,0.59,0.458C173.713,113.291,236.41,78.706,307.042,78.706z M116.16,385.786
	c-0.21,0.132-0.431,0.251-0.659,0.364c10.205,20.626,23.817,39.673,40.565,56.421c4.831,4.831,9.859,9.392,15.054,13.695v-0.984
	C148.292,436.291,129.467,412.643,116.16,385.786z M282.21,503.038c-17.722-2.069-34.779-6.339-50.908-12.501v0.79
	c16.268,6.158,33.319,10.319,50.852,12.342C282.166,503.458,282.185,503.248,282.21,503.038z M228.636,489.499
	c-19.931-7.925-38.392-18.771-54.849-32.018v0.962c16.733,13.415,35.198,24.105,54.849,31.85V489.499z M343.362,501.374
	c-0.025,0.228-0.049,0.456-0.075,0.683c2.963-0.504,5.907-1.078,8.836-1.704c-0.193-0.187-0.382-0.371-0.578-0.56
	C348.835,500.371,346.108,500.9,343.362,501.374z M368.079,496.193l0.058,0.081c8.328-2.474,16.482-5.454,24.426-8.927v-0.815
	c-7.564,3.331-15.355,6.239-23.346,8.684L368.079,496.193z M458.018,442.571c40.326-40.326,62.536-93.945,62.536-150.975
	c0-27.61-5.22-54.414-15.166-79.303c-0.213,0.109-0.435,0.208-0.663,0.298c9.803,24.441,15.208,51.102,15.208,79.004
	c0,85.95-51.203,160.161-124.704,193.749v0.81C418.31,475.68,439.559,461.03,458.018,442.571z M307.042,504.486
	c-2.72,0-5.427-0.054-8.122-0.156c-0.003,0.203-0.01,0.407-0.025,0.609c2.708,0.101,5.423,0.168,8.147,0.168
	c5.459,0,10.887-0.207,16.275-0.611c-0.016-0.208-0.032-0.416-0.048-0.625C317.913,504.278,312.501,504.486,307.042,504.486z
	 M332.721,327.757c-1.096-1.232-2.172-2.489-3.191-3.777C330.549,325.268,331.625,326.525,332.721,327.757z M329.529,323.98
	c-1.529-1.933-2.93-3.938-4.076-6.041C326.599,320.042,328,322.047,329.529,323.98z M324.53,361.342h8.61h11.337
	c1.897-0.354,3.695-0.827,5.356-1.424c0.85-0.305,1.67-0.638,2.442-1.009c9.036-35.205,12.108-68.079,9.214-104.537
	c-0.371-4.672-4.5-10.775-8.463-11.919c-4.828-1.394-9.734-2.037-14.568-1.906l0.079,0.941c-5.245,2.482-9.725,6.293-13.747,10.594
	l-2.095,0.177l-0.667-7.92c-4.03,1.855-7.856,4.386-11.352,7.67c-0.958,0.9-1.584,2.068-1.855,3.328l0,0L297.01,281.26
	l12.352,11.534c-0.177,4.429-0.454,8.852-0.807,13.27c-0.536,6.714-1.267,13.415-2.166,20.105c6.08-3.481,12.369-7.03,18.008-10.368
	c0.321,0.724,0.675,1.436,1.057,2.137c-0.382-0.701-0.736-1.413-1.057-2.137c3.323-1.967,6.432-3.865,9.123-5.627
	c0.346-6.39,0.834-13.044,1.322-19.699l21.779,3.557l-3.608,23.535c-0.588,3.837-3.009,7.13-6.465,8.898
	c-3.447,1.764-6.958,3.403-10.519,4.923l0,0c-10.291,4.392-21.024,7.748-31.977,10.068c-0.573,3.351-1.175,6.699-1.82,10.045
	C306.131,356.316,314.927,359.827,324.53,361.342z"></path>
</svg>