<?xml version="1.0" standalone="no"?>
<svg version="1.1" id="Layer_1" xmlns="http://www.w3.org/2000/svg" xmlns:xlink="http://www.w3.org/1999/xlink" x="0px" y="0px" width="595.279px" height="595.279px" viewBox="0 0.001 595.279 595.279" enable-background="new 0 0.001 595.279 595.279" xml:space="preserve">
<path id="color_x5F_5" fill="#FFD2BB" d="M178.804,204.084c1.674,1.479-3.458,7.635-6.208,9.531
	c-0.194,0.133-0.377,0.249-0.544,0.336c-0.789,0.417-1.514,0.767-2.198,1.046c0.667,5.836,0.199,13.81-0.876,21.067
	c-0.846,0.279-1.697,0.538-2.549,0.794l-7.766,2.016c-0.895,0.197-1.79,0.391-2.688,0.566c1.32-7.365,3.163-15.696,3.163-15.696
	s1.271-6.147,3.029-11.053c-0.037-0.052-0.075-0.103-0.113-0.153c-0.017-0.023-0.034-0.045-0.052-0.07
	c-1.393-2.018-1.934-6.065-1.886-9.958c0.057-4.403,0.7-8.374,2.008-8.147c2.217,0.383-0.803,7.506,1.387,8.021
	c1.31,0.31-0.042-10.949,2.812-10.628c2.559,0.287-1.31,9.048,0.772,9.386c2.082,0.335,0.962-10.071,3.785-9.839
	c2.824,0.231-2.093,10.635-0.068,11.235c2.021,0.599,1.411-8.31,4.09-8.003c2.365,0.273-2.281,10.329-0.553,12.108
	C175.907,208.244,177.382,202.828,178.804,204.084z M265.63,209.01c-2.248-0.072-0.729,7.513-2.978,7.576
	c-1.345,0.039,2.251-10.715-0.608-10.977c-2.563-0.235-0.543,9.125-2.65,9.037c-2.107-0.091,1.09-10.058-1.722-10.401
	c-2.813-0.344-0.097,10.839-2.2,11.018c-2.101,0.179,0.295-8.424-2.391-8.664c-2.372-0.209,0.148,10.577-1.902,11.971
	c-1.849,1.253-2.2-4.35-3.848-3.407c-1.17,0.67-0.254,3.512,1.164,6.189c1.097,2.07,2.493,4.042,3.458,4.838
	c0.688,0.568,1.327,1.056,1.941,1.468c-1.831,5.582-2.982,13.486-3.395,20.811c0.772,0.444,1.555,0.87,2.337,1.292l7.193,3.539
	c0.838,0.375,1.678,0.746,2.524,1.1c0.193-7.48,0.069-16.011,0.069-16.011s-0.004-6.277-0.736-11.437
	c0.069-0.064,0.137-0.119,0.207-0.186c0.868-0.831,1.633-2.185,2.275-3.796c0.669-1.675,1.205-3.628,1.582-5.577
	C266.785,213.072,266.957,209.052,265.63,209.01z M223.957,244.599c0.109,0.063,0.203,0.117,0.277,0.158l-2.106,9.635
	c-0.002,0.007-0.004,0.014-0.006,0.021c-0.001,0.001-0.001,0.002-0.001,0.002c-0.001,0.002-0.006,0.015-0.007,0.017
	c-0.006,0.015-0.022,0.054-0.039,0.095c-0.01,0.025-0.023,0.057-0.036,0.089c-0.028,0.067-0.065,0.153-0.107,0.251
	c-0.017,0.037-0.035,0.08-0.054,0.122c-0.051,0.115-0.108,0.243-0.174,0.386c-0.02,0.042-0.041,0.089-0.063,0.134
	c-0.074,0.159-0.154,0.328-0.244,0.51c-0.021,0.042-0.043,0.085-0.064,0.128c-0.098,0.196-0.202,0.401-0.316,0.615
	c-0.02,0.036-0.04,0.073-0.06,0.109c-0.122,0.228-0.252,0.462-0.392,0.702c-0.014,0.024-0.028,0.048-0.043,0.071
	c-0.148,0.253-0.305,0.51-0.471,0.768c-0.007,0.012-0.016,0.023-0.022,0.035c-0.175,0.269-0.356,0.537-0.548,0.799
	c-0.774,0.96-1.693,1.858-2.752,2.622c-0.001,0-0.001,0-0.001,0c-3.133,1.653-3.133,1.653-3.133,1.653l-0.001,0.505l0.001,0.503
	v5.279c0,0,0.002,0.106,0.011,0.296l0.003,1.467l0.004,2.398l0.006,2.302c-3.063,2.841-6.769,4.359-10.333,3.594
	c-3.58-0.771-6.346-3.702-7.969-7.581c-0.02-0.045-0.036-0.091-0.055-0.136c-0.038-0.097-0.079-0.191-0.116-0.291l0.314-0.686
	c1.101-1.333,1.947-2.684,2.464-3.583c0.368-0.643,0.57-1.057,0.57-1.057l2.648-5.702c0,0,0,0-2.143-2.819
	c-2.146-2.818-1.729-6.251-1.729-6.251l3.546-13.203l0.001-0.006l0.258-1.363c0.255-1.346,0.749-2.581,1.414-3.691
	c1.426-2.018,3.691-2.518,6.757-2.24c1.346,3.212,4.029,7.168,9.387,10.165c1.984,1.11,3.296,1.872,4.161,2.392l-0.019,0.097
	c0.048,0.028,0.09,0.053,0.136,0.08c0.141,0.083,0.277,0.165,0.403,0.237c0.084,0.05,0.156,0.091,0.232,0.136
	c0.1,0.058,0.19,0.111,0.275,0.16C223.871,244.55,223.914,244.575,223.957,244.599z M206.146,244.584
	c-0.135-0.97-0.557-1.799-1.537-2.105c-0.881-0.275-1.813,0.3-2.39,0.911c-0.532,0.563,0.355,1.369,0.885,0.808
	c0.289-0.307,0.691-0.629,1.145-0.572c0.486,0.06,0.642,0.618,0.7,1.027C205.052,245.411,206.251,245.35,206.146,244.584z
	 M218.769,247.298c-0.135-0.97-0.553-1.8-1.536-2.106c-0.879-0.275-1.813,0.301-2.388,0.912c-0.533,0.563,0.353,1.369,0.883,0.808
	c0.289-0.308,0.69-0.629,1.145-0.572c0.486,0.06,0.646,0.619,0.701,1.026C217.68,248.126,218.875,248.065,218.769,247.298z
	 M444.946,227.387c0,0-0.639-6.244-1.892-11.303c0.043-0.048,0.085-0.094,0.128-0.141c0.02-0.021,0.039-0.042,0.059-0.065
	c1.592-1.866,2.539-5.837,2.887-9.716c0.391-4.386,0.154-8.402-1.17-8.309c-2.246,0.156,0.037,7.549-2.195,7.839
	c-1.333,0.175,1.154-10.888-1.718-10.858c-2.574,0.026,0.384,9.134-1.721,9.259c-2.106,0.123,0.063-10.117-2.769-10.173
	c-2.832-0.057,1.004,10.793-1.07,11.185c-2.071,0.391-0.561-8.41-3.257-8.376c-2.38,0.032,1.221,10.507-0.679,12.102
	c-1.713,1.434-2.629-4.104-4.174-2.999c-1.814,1.302,2.666,7.946,5.211,10.111c0.18,0.152,0.35,0.286,0.507,0.39
	c0.741,0.495,1.428,0.916,2.08,1.264c-1.255,5.739-1.599,13.719-1.267,21.048c0.813,0.363,1.632,0.706,2.452,1.046l7.523,2.795
	c0.87,0.287,1.741,0.571,2.618,0.837C445.934,235.862,444.946,227.387,444.946,227.387z M409.643,240.071
	c0.75,1.282-0.494,4.392-1.268,4.846l-3.083,1.804l0.09,0.816c0.378,3.417-0.726,6.949-2.834,9.738
	c-0.685,0.899-1.474,1.719-2.353,2.431l0.691,2.028l1.81,5.317c-5.333,0.128-11.229,0.351-16.609,0.638l0.598-5.752l0.052-0.503
	c-4.902-2.296-7.357-7.54-7.736-10.979l-0.1-0.894l-3.221-1.028c-1.864-0.596-2.892-2.588-2.295-4.452
	c0.594-1.863,2.588-2.892,4.452-2.296l0.211,0.067l-0.018-0.152c0.08-0.035,0.19-0.084,0.317-0.141
	c0.044-0.02,0.09-0.041,0.139-0.063c0.09-0.04,0.187-0.083,0.293-0.131c0.079-0.037,0.154-0.07,0.242-0.111
	c0.135-0.06,0.277-0.127,0.428-0.195c0.049-0.022,0.092-0.042,0.143-0.066l-0.219-2.563c-0.531-6.21,5.881-8,12.091-8.531
	c4.604-0.394,7.802,0.021,9.365,2.792c0.549,1.172,0.915,2.451,1.032,3.815l0.118,1.382l0.001,0.006
	c0.082,0.049,0.16,0.091,0.239,0.137c0.06,0.034,0.12,0.068,0.178,0.101c0.142,0.078,0.278,0.148,0.41,0.214
	c0.038,0.019,0.077,0.04,0.114,0.058c0.161,0.079,0.313,0.148,0.454,0.21c0.058,0.025,0.106,0.044,0.161,0.067
	c0.082,0.035,0.164,0.068,0.236,0.097c0.057,0.021,0.103,0.04,0.152,0.058c0.063,0.023,0.118,0.043,0.17,0.062
	c0.04,0.014,0.074,0.026,0.107,0.037c0.051,0.017,0.09,0.03,0.125,0.041c0.02,0.006,0.035,0.011,0.05,0.016
	c0.037,0.012,0.06,0.018,0.06,0.018l0.002,0.002v-0.001l0.357-0.208C406.487,237.815,408.653,238.383,409.643,240.071z
	 M387.26,243.979c-0.512-0.665-1.381-1.333-2.285-1.149c-1.009,0.205-1.509,0.988-1.74,1.939c-0.184,0.752,1,0.934,1.182,0.189
	c0.097-0.399,0.311-0.94,0.803-0.95c0.455-0.011,0.822,0.35,1.078,0.685C386.769,245.305,387.732,244.593,387.26,243.979z
	 M400.095,242.56c-0.511-0.667-1.381-1.333-2.284-1.149c-1.006,0.205-1.511,0.987-1.742,1.938c-0.183,0.752,1.003,0.934,1.183,0.19
	c0.101-0.401,0.311-0.94,0.801-0.951c0.458-0.011,0.823,0.351,1.081,0.685C399.604,243.885,400.567,243.174,400.095,242.56z
	 M353.907,212.903c-1.899-1.595,1.701-12.07-0.679-12.102c-2.696-0.034-1.186,8.768-3.257,8.376
	c-2.074-0.392,1.762-11.241-1.07-11.185c-2.832,0.056-0.662,10.295-2.769,10.173c-2.104-0.125,0.854-9.233-1.721-9.259
	c-2.872-0.029-0.385,11.034-1.718,10.858c-2.232-0.291,0.051-7.683-2.195-7.839c-1.324-0.093-1.561,3.923-1.17,8.309
	c0.178,1.977,0.513,3.975,1.008,5.709c0.476,1.668,1.099,3.092,1.879,4.007c0.064,0.074,0.124,0.136,0.187,0.206
	c-1.253,5.059-1.892,11.303-1.892,11.303s-0.988,8.475-1.555,15.936c0.877-0.266,1.748-0.55,2.618-0.837l7.523-2.794
	c0.82-0.341,1.64-0.684,2.452-1.047c0.332-7.329-0.012-15.309-1.267-21.048c0.652-0.348,1.339-0.769,2.08-1.264
	c1.041-0.693,2.63-2.514,3.931-4.462c1.683-2.52,2.883-5.253,1.787-6.04C356.536,208.799,355.62,214.337,353.907,212.903z"></path>
<path id="color_x5F_3" fill="#E84393" d="M176.468,259.16c0.398-2.616,1.498-5.024,3.256-6.753c3.286-3.232,3.253-0.653,5.07-2.605
	c2.074-2.229-2.074-2.066-1.43-7.291c0.334-2.718,2.633-5.939,10.111-5.457c2.702,0.173,4.991-2.772,6.461-5.333
	c0.779-3.083,2.729-5.618,5.33-7.241c0.03-0.024,0.06-0.042,0.088-0.055c2.837-1.754,6.426-2.453,10.061-1.672
	c3.578,0.77,6.529,2.832,8.408,5.54c0.181,0.26,0.342,0.532,0.502,0.804c0.006,0.006,0.011,0.011,0.017,0.017
	c2.967,3.23,3.284,6.738,2.737,9.625c0.362,2.687,1.278,5.593,3.492,6.453c6.985,2.715,7.712,6.605,6.869,9.211
	c-1.619,5.009-5.312,3.113-4.369,6.009c0.825,2.536,1.882,0.184,3.5,4.5c0.601,1.601,0.771,3.366,0.577,5.145
	c-0.779,7.111-7.506,14.447-17.008,12.448c-5.74-1.208-6.45-10.606-6.534-12.399c-0.009-0.19-0.011-0.296-0.011-0.296v-5.279v-1.008
	c0,0,0,0,3.133-1.653c0,0,0,0,0.001,0c1.028-0.542,1.96-1.536,2.752-2.622c0.191-0.263,0.373-0.531,0.548-0.799
	c0.007-0.012,0.016-0.023,0.022-0.035c0.166-0.257,0.322-0.514,0.471-0.768c0.015-0.023,0.029-0.047,0.043-0.071
	c0.14-0.24,0.27-0.474,0.392-0.702c0.02-0.036,0.04-0.073,0.06-0.109c0.114-0.214,0.219-0.419,0.316-0.615
	c0.021-0.042,0.044-0.086,0.064-0.128c0.09-0.182,0.17-0.352,0.244-0.51c0.021-0.045,0.043-0.091,0.063-0.134
	c0.065-0.143,0.123-0.271,0.174-0.386c0.019-0.042,0.037-0.084,0.054-0.122c0.042-0.099,0.079-0.184,0.107-0.251
	c0.013-0.032,0.026-0.064,0.036-0.089c0.017-0.041,0.033-0.08,0.039-0.095c0.005-0.012,0.006-0.014,0.008-0.019
	c0.002-0.007,0.004-0.014,0.006-0.021l2.106-9.635c-0.074-0.042-0.168-0.095-0.277-0.158c-0.043-0.024-0.086-0.05-0.134-0.077
	c-0.085-0.049-0.176-0.102-0.275-0.16c-0.076-0.044-0.148-0.086-0.232-0.136c-0.126-0.073-0.263-0.154-0.403-0.237
	c-0.046-0.027-0.088-0.052-0.136-0.08l0.019-0.097c-0.865-0.52-2.177-1.282-4.161-2.392c-5.357-2.996-8.041-6.952-9.387-10.165
	c-3.065-0.277-5.331,0.223-6.757,2.24c-0.64,0.905-1.114,2.109-1.414,3.691l-0.258,1.363c0,0,0,0-0.001,0v0.006l-3.546,13.203
	c0,0-0.416,3.433,1.729,6.251c2.143,2.819,2.143,2.819,2.143,2.819l-2.648,5.702c0,0-0.202,0.414-0.57,1.057
	c-0.517,0.899-1.363,2.25-2.464,3.583c-2.046,2.477-4.965,4.875-8.253,4.113C178.793,273.337,175.484,265.614,176.468,259.16z
	 M222.114,254.432c0.005-0.012,0.006-0.014,0.008-0.019c-0.001,0.001-0.001,0.002-0.001,0.002
	C222.12,254.417,222.115,254.429,222.114,254.432z M176.452,405.712c6.205,19.223,10.002,89.861,10.83,106.613l-7.36,5.541
	c0.388,1.273,0.661,2.596,0.788,3.961h13.388l-5.722-9.705c2.535-10.572,9.458-40.369,9.748-51.941
	c0.138-5.412-2.993-21.441-2.993-21.441l5.446-54.754l5.146,55.412c0,0-3.568,16.787-3.455,22.471
	c0.233,11.508,7.455,41.537,9.821,51.084l-5.235,8.875h19.438l-13.159-9.906c1.351-17.471,7.051-87.203,13.402-106.209
	c3.543-10.6,2.564-31.137,0.457-39.91h-52.753C172.755,373.823,172.597,393.772,176.452,405.712z M174.66,521.827h6.05
	c-0.126-1.365-0.399-2.688-0.788-3.961L174.66,521.827z M372.662,485.363l0.156,7.817l0.077,3.81l0.266,13.28l0.055,2.769
	c0,0,7.045-0.023,5.951,0.18l-8.447,9.986h15.62l-1.905-9.705c2.535-10.572,6.756-73.383,6.756-73.383l5.445-54.754l5.146,55.412
	c0,0,4,64.008,6.365,73.555l-0.056,0.095l-1.419,8.78h15.678l-7.685-8.407c2.552,0.387,5.663-0.259,5.663-0.259l2.723-147.359
	h-52.754L372.662,485.363z M254.871,437.001h85.537v-24h-85.537V437.001z M254.871,475.001h85.537v-30h-85.537V475.001z
	 M254.871,498.478c0,8.021,6.609,14.522,14.763,14.522h56.011c8.153,0,14.763-6.502,14.763-14.522v-14.478h-85.537V498.478z
	 M338.199,145.13c7.27,0,13.162-5.893,13.162-13.163c0-7.27-5.893-13.163-13.162-13.163s-13.162,5.893-13.162,13.163
	C325.037,139.237,330.929,145.13,338.199,145.13z M338.199,111.761c1.113,0,2.018-0.903,2.018-2.018v-9.138
	c0-1.115-0.904-2.018-2.018-2.018c-1.115,0-2.018,0.903-2.018,2.018v9.138C336.181,110.858,337.084,111.761,338.199,111.761z
	 M336.181,154.19v9.138c0,1.114,0.902,2.018,2.018,2.018c1.113,0,2.018-0.904,2.018-2.018v-9.138c0-1.115-0.904-2.018-2.018-2.018
	C337.084,152.172,336.181,153.075,336.181,154.19z M358.404,131.967c0,1.114,0.902,2.018,2.018,2.018h9.139
	c1.113,0,2.018-0.903,2.018-2.018s-0.904-2.018-2.018-2.018h-9.139C359.306,129.949,358.404,130.853,358.404,131.967z
	 M306.838,133.985h9.139c1.115,0,2.018-0.903,2.018-2.018s-0.902-2.018-2.018-2.018h-9.139c-1.113,0-2.018,0.904-2.018,2.018
	S305.724,133.985,306.838,133.985z M355.34,117.679l6.461-6.462c0.789-0.788,0.789-2.065,0-2.853c-0.787-0.788-2.064-0.788-2.854,0
	l-6.461,6.462c-0.789,0.788-0.789,2.066,0,2.854C353.273,118.468,354.551,118.468,355.34,117.679z M321.058,146.254l-6.461,6.462
	c-0.789,0.788-0.789,2.066,0,2.854c0.787,0.788,2.064,0.788,2.854,0l6.461-6.462c0.789-0.788,0.789-2.065,0-2.854
	C323.125,145.466,321.847,145.466,321.058,146.254z M358.947,155.569c0.789,0.788,2.066,0.789,2.854,0
	c0.789-0.788,0.789-2.065,0-2.854l-6.461-6.461c-0.789-0.788-2.066-0.788-2.855,0c-0.787,0.788-0.787,2.065,0.002,2.854
	L358.947,155.569z M321.058,117.679c0.789,0.788,2.066,0.789,2.854,0c0.789-0.788,0.789-2.065,0-2.854l-6.461-6.461
	c-0.789-0.788-2.066-0.788-2.855,0c-0.787,0.788-0.787,2.065,0.002,2.854L321.058,117.679z"></path>
<path id="color_x5F_2" fill="#FBC02D" d="M202.219,243.39c0.576-0.611,1.509-1.187,2.39-0.911c0.98,0.306,1.402,1.135,1.537,2.105
	c0.104,0.767-1.094,0.827-1.197,0.069c-0.059-0.409-0.214-0.967-0.7-1.027c-0.453-0.057-0.855,0.265-1.145,0.572
	C202.575,244.759,201.687,243.952,202.219,243.39z M214.845,246.104c-0.533,0.563,0.353,1.369,0.883,0.808
	c0.289-0.308,0.69-0.629,1.145-0.572c0.486,0.06,0.646,0.619,0.701,1.026c0.106,0.759,1.301,0.698,1.195-0.068
	c-0.135-0.97-0.553-1.8-1.536-2.106C216.354,244.917,215.42,245.493,214.845,246.104z M256.134,277.779
	c0.797-0.886,1.509-1.729,2.098-2.501c1.545-1.253,2.467-6.058,2.795-8.178c0.704-4.538,1.318-12.659,1.318-12.659l-2.314-1.139
	l-7.193-3.539l-2.547-1.253c-0.076,0.495-4.065,12.122-5.372,16.315c-2.259,1.334-5.23,3.372-7.77,5.231
	c-0.779,7.111-7.506,14.447-17.008,12.448c-5.74-1.208-6.45-10.606-6.534-12.399l0.003,1.467l0.004,2.398l0.006,2.302
	c-3.063,2.841-6.769,4.359-10.333,3.594c-3.58-0.771-6.346-3.702-7.969-7.581c-0.02-0.045-0.036-0.091-0.055-0.136
	c-0.038-0.097-0.079-0.191-0.116-0.291l0.314-0.686c-2.046,2.477-4.965,4.875-8.253,4.113c-8.415-1.948-11.724-9.672-10.74-16.125
	c-1.686-1.56-3.447-3.076-5.218-4.417c0.149-0.558-2.104-17.997-2.073-18.598l-2.747,0.713l-7.766,2.016l-2.491,0.647
	c0,0-1.037,8.078-1.264,12.665c-0.106,2.142-0.173,7.034,1.086,8.573c4.021,8.354,17.313,24.975,18.764,25.671
	c0.003,0.738,0.017,1.179,0.017,1.179l-0.536,78.191h52.753l2.386-66.562C229.378,299.24,251.636,284.271,256.134,277.779z
	 M397.811,241.411c-1.006,0.205-1.511,0.987-1.742,1.938c-0.183,0.752,1.003,0.934,1.183,0.19c0.101-0.401,0.311-0.94,0.801-0.951
	c0.458-0.011,0.823,0.351,1.081,0.685c0.471,0.612,1.434-0.1,0.962-0.714C399.585,241.893,398.715,241.226,397.811,241.411z
	 M384.975,242.83c-1.009,0.205-1.509,0.988-1.74,1.939c-0.184,0.752,1,0.934,1.182,0.189c0.097-0.399,0.311-0.94,0.803-0.95
	c0.455-0.011,0.822,0.35,1.078,0.685c0.472,0.612,1.435-0.1,0.963-0.714C386.749,243.314,385.88,242.645,384.975,242.83z
	 M378.031,241.698c0.08-0.035,0.19-0.084,0.317-0.141c0.044-0.02,0.09-0.041,0.139-0.063c0.09-0.04,0.187-0.083,0.293-0.131
	c0.079-0.037,0.154-0.07,0.242-0.111c0.135-0.06,0.277-0.127,0.428-0.195c0.049-0.022,0.092-0.042,0.143-0.066l-0.219-2.563
	c-0.531-6.21,5.881-8,12.091-8.531c4.604-0.394,7.802,0.021,9.365,2.792c0.545,0.965,0.895,2.211,1.032,3.815l0.118,1.382
	c0.081,0.048,0.162,0.098,0.24,0.143c0.06,0.034,0.12,0.068,0.178,0.101c0.142,0.078,0.278,0.148,0.41,0.214
	c0.038,0.019,0.077,0.04,0.114,0.058c0.161,0.079,0.313,0.148,0.454,0.21c0.058,0.025,0.106,0.044,0.161,0.067
	c0.082,0.035,0.164,0.068,0.236,0.097c0.057,0.021,0.103,0.04,0.152,0.058c0.063,0.023,0.118,0.043,0.17,0.062
	c0.04,0.014,0.074,0.026,0.107,0.037c0.051,0.017,0.09,0.03,0.125,0.041c0.02,0.006,0.035,0.011,0.05,0.016
	c0.037,0.012,0.06,0.018,0.06,0.018l-0.818-7.407c-0.367-3.328-2.107-6.203-4.639-8.165c-0.027-0.027-0.053-0.048-0.08-0.063
	c-2.645-2.032-6.145-3.092-9.84-2.684c-3.637,0.403-6.781,2.154-8.926,4.658c-2.141,2.501-3.275,5.76-2.897,9.171L378.031,241.698z
	 M443.883,242.486l-7.523-2.795l-2.655-0.986c-0.032,0.601-4.041,17.721-3.951,18.291c-4.734,2.882-9.55,6.839-13.059,10.006
	c-3.063-0.12-8.195-0.091-13.997,0.049c-5.333,0.128-11.229,0.351-16.609,0.638c-4.103,0.219-7.905,0.475-10.922,0.756
	c-1.091-0.026-2.231,0.109-3.37,0.371c-1.263,0.167-2.236,0.339-2.798,0.517c-0.624,0.196-1.134,0.587-1.557,1.118
	c0.31-0.389-7.38-7.493-11.997-10.897c-0.876-4.304-3.664-16.275-3.691-16.776l-2.655,0.987l-7.523,2.794l-2.414,0.897
	c0,0-0.212,8.141,0.027,12.727c0.112,2.142,0.541,7.016,1.95,8.419c0.508,0.828,1.131,1.739,1.832,2.701
	c3.816,6.915,24.442,24.065,24.442,24.065l2.886,71.813h52.754l-0.139-77.843c0,0,0.057-0.438,0.136-1.171
	c1.514-0.546,16.423-15.732,21.271-23.636c1.409-1.403,1.838-6.277,1.95-8.419c0.239-4.586,0.027-12.727,0.027-12.727
	L443.883,242.486z M352.78,367.352v137.509c0,11.218-9.126,20.344-20.343,20.344h-69.595c-11.217,0-20.343-9.126-20.343-20.344
	V367.352c0-11.218,9.126-20.344,20.343-20.344h11.993v-13.745c0-5.063,4.119-9.182,9.181-9.182h27.246
	c5.063,0,9.182,4.119,9.182,9.182v13.745h11.994C343.654,347.009,352.78,356.135,352.78,367.352z M348.78,367.352
	c0-9.012-7.331-16.344-16.343-16.344h-15.994v-17.745c0-2.857-2.324-5.182-5.182-5.182h-27.246c-2.856,0-5.181,2.324-5.181,5.182
	v17.745h-15.993c-9.012,0-16.343,7.332-16.343,16.344v137.509c0,9.012,7.332,16.344,16.343,16.344h69.595
	c9.012,0,16.343-7.332,16.343-16.344V367.352z M212.395,143.35h0.021c0.119,0.004,0.234,0.008,0.353,0.008
	c0.102,0,0.201,0,0.303-0.008c0.017,0.004,0.033,0,0.049,0c1.267-0.049,2.632-0.067,4.36-0.823
	c3.877-1.695,8.744-5.685,13.343-8.118c0.122,0.232,0.254,0.461,0.406,0.684c1.126,1.648,2.853,2.636,4.686,2.886
	c-0.039,5.481-0.041,12.198,0.132,15.464c0.316,6.036,3.624,10.771,7.381,10.573c3.496-0.18,6.148-4.557,6.25-10.016v-0.021
	c0.004-0.119,0.008-0.233,0.008-0.353c0-0.102,0-0.201-0.008-0.303c0.004-0.017,0-0.033,0-0.049
	c-0.049-1.267-0.067-2.632-0.822-4.36c-1.589-3.635-5.189-8.139-7.638-12.477c1.246-1.055,2.025-2.486,2.291-4.01
	c5.717,0.05,13.578,0.073,17.198-0.118c6.037-0.316,10.771-3.623,10.573-7.381c-0.18-3.496-4.557-6.148-10.016-6.25h-0.021
	c-0.119-0.004-0.233-0.008-0.353-0.008c-0.102,0-0.201,0-0.303,0.008c-0.017-0.004-0.033,0-0.049,0
	c-1.267,0.049-2.632,0.067-4.36,0.822c-3.941,1.723-8.903,5.812-13.568,8.231c-0.061-0.099-0.115-0.199-0.181-0.296
	c-0.807-1.18-1.922-2.023-3.163-2.5c0.057-5.76,0.1-14.581-0.107-18.48c-0.315-6.037-3.623-10.771-7.38-10.574
	c-3.496,0.18-6.148,4.557-6.25,10.016v0.021c-0.004,0.119-0.008,0.234-0.008,0.353c0,0.102,0,0.201,0.008,0.303
	c-0.004,0.017,0,0.033,0,0.049c0.049,1.268,0.067,2.633,0.822,4.36c1.756,4.018,5.967,9.095,8.365,13.838
	c-0.595,0.195-1.173,0.472-1.716,0.843c-1.421,0.972-2.35,2.39-2.741,3.937c-5.725-0.05-13.664-0.075-17.308,0.118
	c-6.037,0.316-10.771,3.623-10.573,7.381C202.559,140.596,206.936,143.248,212.395,143.35z M465.426,130.222
	c-5.389,3.264-9.528,7.729-12.733,12.85c-1.537,2.454-2.861,5.057-4.001,7.755c-1.408-8.058-4.01-15.741-8.084-22.471
	c-4.38-7.235-10.464-13.368-18.666-17.633c-1.713-0.891-3.23,1.698-1.514,2.591c7.866,4.09,13.663,9.98,17.817,16.927
	c4.674,7.816,7.263,16.972,8.267,26.478c-0.465,1.456-0.891,2.924-1.273,4.398c-0.488,1.874,2.404,2.668,2.893,0.798
	c0.174-0.669,0.357-1.337,0.549-2.004c0.594-0.134,1.072-0.594,1.004-1.395c-0.039-0.477-0.088-0.953-0.135-1.428
	c1.341-4.099,3.045-8.079,5.233-11.725c3.009-5.012,6.94-9.39,12.157-12.55C468.592,131.812,467.086,129.217,465.426,130.222z"></path>
<path id="color_x5F_1" fill="#0984E3" d="M539.215,520.885c0,0.66-0.064,1.309-0.16,1.942H428.438
	c0.949-10.266,9.689-18.31,20.344-18.31c4.491,0,8.628,1.444,12.001,3.866c-0.251-1.034-0.398-2.11-0.398-3.22
	c0-7.613,6.257-13.785,13.974-13.785c5.695,0,10.583,3.367,12.762,8.188c0.861-9.792,9.182-17.48,19.331-17.48
	c10.725,0,19.419,8.577,19.419,19.156c0,2.299-0.434,4.493-1.185,6.535c0.39-0.034,0.783-0.059,1.185-0.059
	C533.239,507.719,539.215,513.613,539.215,520.885z M160.366,503.517c-4.491,0-8.628,1.444-12.001,3.866
	c0.251-1.034,0.398-2.11,0.398-3.22c0-7.613-6.257-13.785-13.974-13.785c-5.695,0-10.583,3.367-12.762,8.188
	c-0.861-9.792-9.182-17.48-19.331-17.48c-10.725,0-19.419,8.577-19.419,19.156c0,2.299,0.434,4.493,1.185,6.535
	c-0.39-0.034-0.783-0.059-1.185-0.059c-7.369,0-13.345,5.895-13.345,13.166c0,0.66,0.064,1.309,0.16,1.942H174.66l5.262-3.961
	C177.392,509.567,169.603,503.517,160.366,503.517z M125.322,141.031c0-12.067,21.851-39.367,21.851-39.367
	s21.85,27.299,21.85,39.367c0,12.068-9.783,21.851-21.85,21.851C135.104,162.882,125.322,153.099,125.322,141.031z M141.644,128.962
	c1.761-2.669,3.162-5.425,4.192-8.455c0.793-2.333-2.887-3.325-3.674-1.013c-0.925,2.72-2.228,5.15-3.808,7.545
	C136.998,129.096,140.298,131.003,141.644,128.962z M135,140.906c2.457,0,2.457-3.81,0-3.81S132.543,140.906,135,140.906z
	 M438.245,130.241c-4.154-6.947-9.951-12.837-17.817-16.927c-1.717-0.893-0.199-3.482,1.514-2.591
	c8.202,4.265,14.286,10.397,18.666,17.633c0.379-0.366,0.748-0.75,1.098-1.159c5.973-6.979,5.156-17.477-1.822-23.451
	c-6.979-5.973-33.58-6.849-33.58-6.849s4.973,26.147,11.951,32.12C424.029,133.961,432.209,134.242,438.245,130.241z
	 M452.692,143.072c3.205-5.122,7.345-9.586,12.733-12.85c1.66-1.005,3.166,1.59,1.514,2.591c-5.217,3.16-9.148,7.538-12.157,12.55
	c5.319,4.854,13.394,5.854,19.854,1.918c7.844-4.779,16.936-29.793,16.936-29.793s-26.398-3.393-34.242,1.385
	c-7.846,4.78-10.33,15.013-5.551,22.858C452.063,142.198,452.37,142.643,452.692,143.072z"></path>
</svg>